<svg xmlns="http://www.w3.org/2000/svg" viewBox="0 0 21 21"><defs><style>.cls-1{fill:none;stroke:#fff;stroke-linecap:round;stroke-linejoin:round;stroke-width:1.5px;}</style></defs><g id="Layer_2" data-name="Layer 2"><g id="Layer_1-2" data-name="Layer 1"><path id="Path_2" data-name="Path 2" class="cls-1" d="M.75.75H2.92l.43,2.17m0,0h16.9l-4.33,8.66H5.08M3.35,2.92l1.73,8.66m0,0L2.6,14.07a1.09,1.09,0,0,0,0,1.53,1.1,1.1,0,0,0,.77.32H15.92m0,0a2.15,2.15,0,1,0,1.53.63,2.17,2.17,0,0,0-1.53-.63ZM7.25,18.08a2.17,2.17,0,1,1-2.17-2.16,2.12,2.12,0,0,1,1.53.63A2.17,2.17,0,0,1,7.25,18.08Z"/></g></g></svg>