<svg xmlns="http://www.w3.org/2000/svg" viewBox="0 0 22.25 19.25"><defs><style>.cls-1{fill:none;stroke:#000;stroke-linecap:round;stroke-linejoin:round;stroke-width:2px;}</style></defs><g id="Layer_2" data-name="Layer 2"><g id="Layer_1-2" data-name="Layer 1"><path class="cls-1" d="M1,9.62,3.25,7.71m0,0L11.12,1,19,7.71m-15.75,0v9.58a.89.89,0,0,0,.33.68,1.24,1.24,0,0,0,.8.28H7.75M19,7.71l2.25,1.91M19,7.71v9.58a.89.89,0,0,1-.33.68,1.23,1.23,0,0,1-.79.28H14.5m-6.75,0a1.26,1.26,0,0,0,.8-.28.89.89,0,0,0,.33-.68V13.46a.88.88,0,0,1,.32-.68,1.26,1.26,0,0,1,.8-.28h2.25a1.26,1.26,0,0,1,.8.28.89.89,0,0,1,.33.68v3.83a.88.88,0,0,0,.32.68,1.26,1.26,0,0,0,.8.28m-6.75,0H14.5"/></g></g></svg>