<svg xmlns="http://www.w3.org/2000/svg" viewBox="0 0 44.36 26.5"><defs><style>.cls-1{stroke:#000;stroke-width:0.5px;fill-rule:evenodd;}</style></defs><g id="Layer_2" data-name="Layer 2"><g id="Layer_1-2" data-name="Layer 1"><path class="cls-1" d="M29,18.09l5.74-1-3.62-4.8C29.2,14,29,16,29,18.09Zm-1.58.35c0-.21-.05-.54-.05-.77A8.76,8.76,0,0,1,28,14.06a8.65,8.65,0,0,1,2.11-3L28,8.44,24.71,18.72ZM14.74,8.22l.18-.58,11.73,0L23.53,17.3l-.14-1h.36l0-.65H22.14l0,.58h.41l.09,1.1ZM9.55,17.51a10.31,10.31,0,0,0,3.68-4.93,6.93,6.93,0,0,1,1.63,2.31,7.16,7.16,0,0,1,.57,2.78,6.89,6.89,0,0,1-6.79,6.94,6.95,6.95,0,0,1,0-13.89,6.68,6.68,0,0,1,3.4.95A8.66,8.66,0,0,1,8.67,16.6a1,1,0,0,0-.65.28.92.92,0,0,0-.26.65,1,1,0,0,0,.28.65.92.92,0,0,0,.65.26A.81.81,0,0,0,9,18.36a.91.91,0,0,0,.29-.19.92.92,0,0,0,.18-.3,1,1,0,0,0,.06-.34Zm19.64,2.06a6.77,6.77,0,0,0,13.32-1.91,6.88,6.88,0,0,0-6.79-6.94,7.38,7.38,0,0,0-3.59.89l3.68,5a1,1,0,0,1,.6.31,1,1,0,0,1,.23.64,1,1,0,0,1-.27.62.93.93,0,0,1-.61.27.91.91,0,0,1-.4-.1ZM12.52,10.06l2.4-6.78L14.16,2,15.69.25H19l0,1H16.13l-.58.65.68,1.23-.85,3.07H27.12l.18-.56a8.37,8.37,0,0,1-3-1.07c-.39-.34,0-.66.4-.68,2.31-.1,5.76-.29,6.41-.29s.72.34.29.83A3.31,3.31,0,0,1,29,5.58l-.45,1.24,2.78,3.52a8.64,8.64,0,1,1-3.68,9.52l-2.55.47a1.53,1.53,0,0,1-.67.73l.45,2.21h.58l0,.59L23.62,24v-.64h.45l-.56-2.21a1.19,1.19,0,0,1-.8-.42,1.21,1.21,0,0,1-.27-.87,1.59,1.59,0,0,1,.06-.3L14.16,9.87l-.38,1a8.63,8.63,0,0,1,2.38,3A8.84,8.84,0,0,1,17,17.67a8.5,8.5,0,0,1-8.39,8.57,8.58,8.58,0,0,1,0-17.15,8.24,8.24,0,0,1,3.88,1Z"/></g></g></svg>