<svg xmlns="http://www.w3.org/2000/svg" viewBox="0 0 16 12"><defs><style>.cls-1,.cls-2{fill:#fff;}.cls-2{fill-rule:evenodd;}</style></defs><g id="Layer_2" data-name="Layer 2"><g id="Layer_1-2" data-name="Layer 1"><path class="cls-1" d="M2,0A2,2,0,0,0,.59.59,2,2,0,0,0,0,2V3H16V2A2,2,0,0,0,15.41.59,2,2,0,0,0,14,0Z"/><path class="cls-2" d="M16,5H0v5a2,2,0,0,0,.59,1.41A2,2,0,0,0,2,12H14a2,2,0,0,0,2-2ZM2,9A1,1,0,0,1,3,8H4a1,1,0,1,1,0,2H3A1,1,0,0,1,2,9ZM7,8a1,1,0,1,0,0,2H8A1,1,0,1,0,8,8Z"/></g></g></svg>