<svg xmlns="http://www.w3.org/2000/svg" viewBox="0 0 211.75 165.03"><defs><style>.cls-1{fill:#1cbb9c;}</style></defs><g id="Layer_2" data-name="Layer 2"><g id="Layer_1-2" data-name="Layer 1"><g id="R8rKct.tif"><path class="cls-1" d="M70.49,165c-.5-.45-1.08-.92-1.61-1.45Q35,129.72,1.12,95.9c-1.59-1.58-1.41-2.4.07-3.85,6.56-6.42,13.08-12.9,19.47-19.49,1.68-1.74,2.59-1.79,4.35,0,14.19,14.1,28.57,28,42.7,42.18,2.52,2.53,3.72,2.15,6-.15Q130,58.09,186.33,1.74c2.2-2.21,3.33-2.41,5.55-.06C197.8,8,203.91,14.09,210.2,20c2.34,2.2,1.81,3.31-.15,5.28q-49.77,49.95-99.42,100-18.84,19-37.73,37.88C72.23,163.86,71.7,164.75,70.49,165Z" transform="translate(0 0)"/></g></g></g></svg>