<svg xmlns="http://www.w3.org/2000/svg" viewBox="0 0 24.84 25.96"><defs><style>.cls-1{fill:black;stroke:black;}</style></defs><g id="Layer_2" data-name="Layer 2"><g id="Layer_1-2" data-name="Layer 1"><g id="Group_2" data-name="Group 2"><path id="Path_8" data-name="Path 8" class="cls-1" d="M12.41,25.45H5.74c-.49,0-.7-.19-.7-.69,0-3.14,0-6.29,0-9.43a.37.37,0,0,0-.29-.41A6.23,6.23,0,0,1,5.92,2.83a9.62,9.62,0,0,1,1.42,0,.41.41,0,0,0,.37-.15A6.1,6.1,0,0,1,13.09.54a6,6,0,0,1,4,2.08.44.44,0,0,0,.42.19A6,6,0,0,1,23,5.14a6.22,6.22,0,0,1-1,8.74,6.07,6.07,0,0,1-1.92,1,.37.37,0,0,0-.29.41q0,4.64,0,9.25a2,2,0,0,1,0,.42.55.55,0,0,1-.6.45c-1.13,0-2.26,0-3.38,0s-2.27,0-3.4,0Zm6.24-4v-6.7c0-.52.12-.67.63-.79A5.1,5.1,0,0,0,17.16,4a.59.59,0,0,1-.59-.22c-.08-.09-.14-.2-.22-.29a5,5,0,0,0-4.8-1.76,4.92,4.92,0,0,0-3.24,2A.68.68,0,0,1,7.67,4,7.4,7.4,0,0,0,6,4,4.83,4.83,0,0,0,2,7.2a4.91,4.91,0,0,0,.88,5.15A4.91,4.91,0,0,0,5.64,14a.61.61,0,0,1,.56.65v6.82Zm0,1.19H6.22V24.3H18.64Z"/><path id="Path_9" data-name="Path 9" class="cls-1" d="M12.14,16.39a6.12,6.12,0,0,1-4.8-2.62.88.88,0,0,1-.17-.35.55.55,0,0,1,.33-.63.56.56,0,0,1,.71.24,5.1,5.1,0,0,0,8.34.11.44.44,0,0,1,.08-.11.58.58,0,0,1,1,.59.27.27,0,0,1-.07.08,5.9,5.9,0,0,1-1.48,1.51A6.42,6.42,0,0,1,12.14,16.39Z"/></g></g></g></svg>