<svg xmlns="http://www.w3.org/2000/svg" viewBox="0 0 16 16"><defs><style>.cls-1{fill:#fff;fill-rule:evenodd;}</style></defs><g id="Layer_2" data-name="Layer 2"><g id="Layer_1-2" data-name="Layer 1"><path class="cls-1" d="M4.27,1.45A3,3,0,0,0,6,.73a3.08,3.08,0,0,1,4,0,3,3,0,0,0,1.74.72,3.13,3.13,0,0,1,1.93.89,3.06,3.06,0,0,1,.88,1.93A3.12,3.12,0,0,0,15.27,6a3.08,3.08,0,0,1,0,4,3.12,3.12,0,0,0-.73,1.74,3,3,0,0,1-2.81,2.81,3.12,3.12,0,0,0-1.74.73,3.08,3.08,0,0,1-4,0,3.12,3.12,0,0,0-1.74-.73,3.06,3.06,0,0,1-1.93-.88,3.13,3.13,0,0,1-.89-1.93A3,3,0,0,0,.73,10a3.08,3.08,0,0,1,0-4,3,3,0,0,0,.72-1.74A3.07,3.07,0,0,1,4.27,1.45Zm7.44,5.26A1,1,0,0,0,12,6a1,1,0,0,0-1-1,1,1,0,0,0-.71.28L7,8.59,5.71,7.29A1,1,0,0,0,5,7,1,1,0,0,0,4,8a1,1,0,0,0,.28.71l2,2a1,1,0,0,0,1.42,0Z"/></g></g></svg>