<svg xmlns="http://www.w3.org/2000/svg" viewBox="0 0 15.84 15.05"><defs><style>.cls-1{fill:#fff;}</style></defs><g id="Layer_2" data-name="Layer 2"><g id="Layer_1-2" data-name="Layer 1"><path class="cls-1" d="M15,8.71a.83.83,0,0,0-.56.23.79.79,0,0,0-.23.56v3.17a.79.79,0,0,1-.79.79H2.37a.76.76,0,0,1-.55-.23.8.8,0,0,1-.24-.56V5.08L6.24,9.73a2.37,2.37,0,0,0,3.36,0L12.44,6.9a.79.79,0,0,0,.23-.56.77.77,0,0,0-.23-.56.79.79,0,0,0-1.13,0L8.48,8.62a.78.78,0,0,1-.26.17.8.8,0,0,1-.3.06.81.81,0,0,1-.31-.06,1.06,1.06,0,0,1-.26-.17L2.7,4h9.18a.76.76,0,0,0,.55-.23.77.77,0,0,0,0-1.12.76.76,0,0,0-.55-.23H2.37a2.35,2.35,0,0,0-1.67.7A2.33,2.33,0,0,0,0,4.75v7.92a2.39,2.39,0,0,0,2.37,2.38H13.46a2.37,2.37,0,0,0,2.37-2.38V9.5a.79.79,0,0,0-.23-.56A.83.83,0,0,0,15,8.71Zm0-7.12a.83.83,0,0,0,.56-.23l.1-.13a.54.54,0,0,0,.07-.13A.39.39,0,0,0,15.83,1a.38.38,0,0,0,0-.15A.83.83,0,0,0,15.6.23a.85.85,0,0,0-.25-.17A.81.81,0,0,0,15,0a.77.77,0,0,0-.3.06.78.78,0,0,0-.26.17,1.06,1.06,0,0,0-.17.26.81.81,0,0,0-.06.31.8.8,0,0,0,.06.3.9.9,0,0,0,.17.26A.83.83,0,0,0,15,1.59Zm0,.79a.79.79,0,0,0-.79.79V6.34a.79.79,0,1,0,1.58,0V3.17A.79.79,0,0,0,15,2.38Z"/></g></g></svg>