<svg xmlns="http://www.w3.org/2000/svg" viewBox="0 0 19.02 19.02"><defs><style>.cls-1{fill:none;stroke:#000;stroke-linecap:round;stroke-linejoin:round;stroke-width:2px;}</style></defs><g id="Layer_2" data-name="Layer 2"><g id="Layer_1-2" data-name="Layer 1"><path class="cls-1" d="M8,3H3a2,2,0,0,0-1.41.59A2,2,0,0,0,1,5V16a2,2,0,0,0,2,2H14a2,2,0,0,0,2-2V11M14.59,1.61A2,2,0,0,1,16,1a2,2,0,0,1,.77.15,2,2,0,0,1,.66.44,1.92,1.92,0,0,1,.44.65A1.89,1.89,0,0,1,18,3a1.87,1.87,0,0,1-.16.77,2.05,2.05,0,0,1-.45.65L8.83,13H6V10.2Z"/></g></g></svg>