<svg xmlns="http://www.w3.org/2000/svg" viewBox="0 0 21 21.18"><defs><style>.cls-1{fill:#34a853;}.cls-2{fill:#4385f3;}.cls-3{fill:#adcaf9;}.cls-4{fill:#e94335;}.cls-5{fill:#fabb06;}</style></defs><g id="Layer_2" data-name="Layer 2"><g id="Layer_1-2" data-name="Layer 1"><g id="dmIDM0.tif"><path class="cls-1" d="M4.68,12.57a10.64,10.64,0,0,0,.51,1.08,6.29,6.29,0,0,0,4.23,3.06A6.8,6.8,0,0,0,14.19,16l.13-.05.19.16,3.2,2.45a8.23,8.23,0,0,1-1.58,1.18,10.2,10.2,0,0,1-3.84,1.35,2.92,2.92,0,0,0-.72.11H9.91a3.67,3.67,0,0,0-.74-.11,10.7,10.7,0,0,1-7.26-4.45,7.43,7.43,0,0,1-.81-1.35l1.18-.87Z"/><path class="cls-2" d="M17.71,18.54l-3.2-2.45-.19-.16a7.2,7.2,0,0,0,1-.85,4.8,4.8,0,0,0,.81-1.22,3.84,3.84,0,0,0,.34-.87c.05-.24.06-.24-.18-.24H10.89c-.11,0-.16,0-.16-.14q0-1.9,0-3.81c0-.1,0-.15.14-.14h9.62c.2,0,.27.06.3.25A9.42,9.42,0,0,1,21,10.17,2.61,2.61,0,0,0,21,11v.29c-.07,0,0,.11,0,.17a10.4,10.4,0,0,1-1.21,4.43A11.19,11.19,0,0,1,19.09,17,8.7,8.7,0,0,1,17.71,18.54Z"/><path class="cls-3" d="M21,11a2.61,2.61,0,0,1,0-.79h0Z"/><path class="cls-4" d="M1.1,5.91a6.52,6.52,0,0,1,.75-1.27c.34-.43.66-.88,1-1.28A9.77,9.77,0,0,1,5.21,1.48,11,11,0,0,1,9.88,0a10.76,10.76,0,0,1,6.25,1.42,14.61,14.61,0,0,1,1.54,1.07c.11.09.12.15,0,.25-.45.44-.87.9-1.32,1.31s-1,1-1.57,1.53c-.09.1-.15.09-.25,0a6,6,0,0,0-4.19-1.28A6.2,6.2,0,0,0,5.56,7a8,8,0,0,0-.87,1.63l-.12-.08C3.42,7.65,2.28,6.76,1.1,5.91Z"/><path class="cls-5" d="M1.1,5.91c1.18.85,2.32,1.74,3.47,2.62l.12.08a8.45,8.45,0,0,0-.29,1.58,6.09,6.09,0,0,0,.24,2.16,1.43,1.43,0,0,1,0,.22L2.28,14.4l-1.18.87a8.11,8.11,0,0,1-.72-1.88A10.57,10.57,0,0,1,1,6S1.08,6,1.1,5.91Z"/></g></g></g></svg>