<svg xmlns="http://www.w3.org/2000/svg" viewBox="0 0 255.59 219.66"><g id="Layer_2" data-name="Layer 2"><g id="Layer_1-2" data-name="Layer 1"><g id="_4mOHxT.tif" data-name="4mOHxT.tif"><path d="M127.72,219.66H21.38C8.55,219.66,0,211.19,0,198.42Q0,145.77,0,93.11a8.55,8.55,0,0,1,3-7C12.6,77.46,22.06,68.59,31.67,59.9A5.85,5.85,0,0,0,33.74,55c-.07-16.48,0-33,0-49.44C33.7,1.14,34.85,0,39.36,0H215c4.56,0,5.74,1.21,5.74,5.82,0,16.57,0,33.13,0,49.7a4.9,4.9,0,0,0,1.89,4.14c10.19,9,20.28,18,30.47,27a6.81,6.81,0,0,1,2.56,5.57q-.06,53.29,0,106.6c0,12.26-8.72,20.86-21,20.86q-53.43,0-106.86,0ZM41.94,8.38v3q0,42.62,0,85.23c0,2.13.58,3.09,2.64,3.79,27,9.26,53.93,18.64,80.92,27.88a8.43,8.43,0,0,0,4.9,0q30.55-9.54,61-19.28l20.92-6.65v-94Zm199.4,202.11c-1.09-1.2-1.58-1.78-2.11-2.31q-39.33-39.35-78.63-78.71a3.19,3.19,0,0,0-3.81-.84c-8.8,2.87-17.61,5.71-26.48,8.35a9.22,9.22,0,0,1-5.18-.06q-11.86-3.84-23.57-8.14c-1.94-.71-3-.31-4.42,1.09q-39.27,39.39-78.63,78.7c-.63.63-1.24,1.3-2.39,2.5,2.5.14,4.26.31,6,.31q64.38,0,128.76,0,41.46,0,82.92,0A71.43,71.43,0,0,0,241.34,210.49ZM8.29,96.54v24.1c0,25.84,0,51.68,0,77.52a48.56,48.56,0,0,0,1,6.94l80.4-80.38ZM247,100.08,168.46,125l78.06,78.08C247.38,201.07,247.92,105.19,247,100.08Zm-26.1-30.94V99.7l25.38-8ZM33.48,96.5V69.36C26.19,76.08,19.23,82.48,12,89.1Z"/><path d="M155.87,39.35c0-3,0-6,0-9,0-2.6,1.23-4.11,3.28-4,2.44.1,3.14,1.73,3.14,3.86q0,8.88,0,17.76c0,1.62-.3,3.08-2.08,3.74s-3.1-.28-4.16-1.65q-3.94-5.09-7.9-10.15c-.34-.44-.75-.82-1.46-1.58,0,3.54-.05,6.59,0,9.64.05,2.19-.67,3.75-3,4-2,.19-3.35-1.48-3.36-4,0-5.91-.13-11.84.09-17.75a5.17,5.17,0,0,1,2.06-3.64c1.47-.95,2.89.17,3.92,1.5,3,3.84,6,7.66,9,11.49Z"/><path d="M103.29,81.37c0-7.67,4.93-13,12.19-13s12.26,5.32,12.33,12.93c.06,7.43-5.2,13-12.26,13S103.31,89,103.29,81.37Zm18,.54a25.12,25.12,0,0,0-.65-3.67c-.75-2.28-2.25-3.84-4.81-3.94s-4.71,1.26-5.15,3.72a18.86,18.86,0,0,0,.28,7.44,3.9,3.9,0,0,0,4.57,2.93A9.31,9.31,0,0,0,120,85.63C120.84,84.76,120.88,83.12,121.25,81.91Z"/><path d="M100.75,41.9c-.82,0-1.32-.08-1.82-.09H91.56c0,2.23,0,4.33,0,6.43s-.87,3.5-3,3.7c-1.94.18-3.28-1.34-3.3-3.7q0-9,0-18c0-2.46,1.2-3.84,3.16-3.87s3.12,1.29,3.18,3.81c0,1.78,0,3.56,0,5.5h9.19c0-2,0-3.83,0-5.7,0-2.06,1-3.53,3.2-3.58s3.24,1.45,3.27,3.49q.09,9.27,0,18.54c0,2.09-1.11,3.54-3.27,3.51s-3.2-1.45-3.22-3.57S100.75,44.23,100.75,41.9Z"/><path d="M175.88,35.1c2.68-2.82,4.77-5.08,6.93-7.28,1.72-1.76,3.55-1.92,4.93-.54s1.3,3.18-.44,5c-2,2-4,4-6.09,6.18,2.35,2.46,4.65,4.85,6.92,7.28,2,2.13,2.16,3.9.59,5.36s-3.33,1.08-5.32-1.06c-2.34-2.51-4.64-5-7.52-8.19,0,2.48,0,4.29,0,6.1-.05,2.5-1.42,4.21-3.34,4-2.26-.23-3.23-1.7-3.23-3.9,0-5.93,0-11.85,0-17.77,0-2.54,1.35-4.06,3.42-3.9,2.36.17,3.14,1.76,3.15,3.9Z"/><path d="M132.61,78.4c0-2.14-.05-4.29,0-6.43s1.14-3.3,3.17-3.31A3,3,0,0,1,139,71.94c.05,3.78,0,7.55,0,11.32,0,2.32.73,4.27,3.27,4.91,3.21.8,5.67-1,5.77-4.38.11-3.6,0-7.2,0-10.81,0-2.78,1.19-4.35,3.25-4.37s3.26,1.53,3.26,4.36c0,4.2.16,8.43-.25,12.59-.57,5.62-5.56,9.17-11.67,8.77-5.79-.37-9.88-4.42-10.05-10C132.56,82.35,132.62,80.37,132.61,78.4Z"/><path d="M135.21,49.65c-.69.57-1.62,2-2.62,2-1.15.07-2.53-.85-3.5-1.7-.8-.7-1.06-2.68-1.73-2.76a33.39,33.39,0,0,0-7.41,0c-.42,0-.79,1.39-1,2.18-.65,2.08-2,3-4.11,2.35s-2.73-2.38-2-4.29c2.22-6.19,4.46-12.38,7-18.43a5.38,5.38,0,0,1,3.88-2.59c1.28-.11,3.45,1,3.91,2.07,2.68,6.46,5,13.09,7.39,19.66A11,11,0,0,1,135.21,49.65Zm-9.12-8.57-2.32-6.88-2.22,6.88Z"/><path d="M90.43,76.16c1.45-2.06,2.69-3.87,4-5.64,1.47-2,3.24-2.4,4.82-1.1s1.71,3,.45,4.75a11.37,11.37,0,0,1-.92,1.24c-4,4.23-6.1,9.07-5.26,15.08a3.1,3.1,0,0,1-3.11,3.85,3.15,3.15,0,0,1-3.14-3.84c.82-6-1.2-10.86-5.23-15.11A12.89,12.89,0,0,1,81,73.93c-1.18-1.69-1.06-3.3.59-4.51s3.41-.9,4.69.84S88.91,74,90.43,76.16Z"/><path d="M73.1,32.55c0,5.47.13,10.61-.1,15.74a4.89,4.89,0,0,1-2.1,3.32c-.67.43-2.39-.07-3.16-.72a4.38,4.38,0,0,1-1-3c-.1-5,0-10.09,0-15.38-1.16,0-2.09.06-3,0a2.85,2.85,0,0,1-2.94-3,2.77,2.77,0,0,1,2.92-3c4.2-.09,8.41-.11,12.61,0a2.69,2.69,0,0,1,2.78,3.06,2.79,2.79,0,0,1-3,2.85C75.22,32.58,74.36,32.55,73.1,32.55Z"/><path d="M173.52,76.65c0,1.62,0,3.25,0,4.88a2.8,2.8,0,0,1-2.89,3,2.75,2.75,0,0,1-3.1-2.75c-.14-3.51-.12-7,0-10.53a2.78,2.78,0,0,1,3-2.84c1.94,0,2.95,1.21,3,3.13C173.55,73.22,173.52,74.93,173.52,76.65Z"/><path d="M173.87,91.08a3.3,3.3,0,0,1-3.56,3.23A3.17,3.17,0,0,1,167.14,91a3.37,3.37,0,1,1,6.73.12Z"/></g></g></g></svg>