<svg xmlns="http://www.w3.org/2000/svg" viewBox="0 0 254.83 166.23"><defs><style>.cls-1{fill:#fff;}</style></defs><g id="Layer_2" data-name="Layer 2"><g id="Layer_1-2" data-name="Layer 1"><path class="cls-1" d="M46.21,82.36l.07.2a3,3,0,0,1,.12.33c0,.12.07.24.1.37a.9.9,0,0,1,.06.26,5.67,5.67,0,0,1-.28,1.6,13.18,13.18,0,0,1-.76,1.95,20.55,20.55,0,0,1-1.11,2.11c-.43.72-.89,1.4-1.37,2A18.72,18.72,0,0,1,41.54,93,8.25,8.25,0,0,1,40,94.24l-.66-.61-.8-.74-.86-.82c-.29-.27-.55-.54-.8-.8a13.84,13.84,0,0,0,1.27-1.17c.48-.5,1-1,1.44-1.64s1-1.22,1.45-1.86a21.27,21.27,0,0,0,1.21-1.83,13.08,13.08,0,0,0,.82-1.63A2.05,2.05,0,0,0,43.31,82a.42.42,0,0,0-.19-.29.71.71,0,0,0-.45-.1,9.83,9.83,0,0,0-2.75.47,18,18,0,0,0-3.27,1.37,24.91,24.91,0,0,0-3.43,2.17A23.28,23.28,0,0,0,30,88.52a22,22,0,0,0-2.7,3.55,17,17,0,0,0-1.8,4.12c.91,0,1.78,0,2.6-.1l2.34-.19,2.13-.18c.68,0,1.34-.08,2-.08a1.72,1.72,0,0,1,1.09.55,7.58,7.58,0,0,1,1.09,1.31,9.11,9.11,0,0,1,.84,1.56,3.73,3.73,0,0,1,.34,1.29,6.05,6.05,0,0,1-.73,2.79,11.72,11.72,0,0,1-1.91,2.7,18.27,18.27,0,0,1-2.77,2.42,22.69,22.69,0,0,1-3.34,1.94,19,19,0,0,1-3.56,1.3,13.12,13.12,0,0,1-3.46.49c-.14-.12-.33-.3-.56-.54s-.49-.51-.76-.81l-.82-.91c-.28-.33-.53-.64-.77-.94s-.46-.57-.64-.82a4.22,4.22,0,0,1-.37-.57,13.06,13.06,0,0,0,2.58.08,20,20,0,0,0,3.2-.43,22,22,0,0,0,3.38-1,15.9,15.9,0,0,0,3.2-1.66A12.27,12.27,0,0,0,33.18,102a8.76,8.76,0,0,0,1.64-3.2,20.43,20.43,0,0,0-2,.12c-.61,0-1.21.11-1.78.19s-1.16.12-1.76.18-1.26.07-2,.07h-.76l-.82,0a4.68,4.68,0,0,1-.78-.18,1.69,1.69,0,0,1-.61-.33c-.35-.3-.69-.61-1-.94a11.42,11.42,0,0,1-.88-1,5.84,5.84,0,0,1-.63-1.05,2.59,2.59,0,0,1-.23-1,8.9,8.9,0,0,1,.74-3.3,19,19,0,0,1,2-3.69,27.08,27.08,0,0,1,3.13-3.59,25,25,0,0,1,3.9-3.13,21,21,0,0,1,4.47-2.18,14.26,14.26,0,0,1,4.75-.82,4.29,4.29,0,0,1,1.52.25,5.09,5.09,0,0,1,1.27.66,6.43,6.43,0,0,1,1,.92c.3.33.57.65.8,1s.44.6.61.88A6.11,6.11,0,0,0,46.21,82.36ZM43.9,106.48c0,.39.14.59.43.59a2,2,0,0,0,1.19-.7,13.64,13.64,0,0,0,1.54-1.82c0-.14,0-.27-.05-.37v-.31a6.56,6.56,0,0,1,.07-.92,4.65,4.65,0,0,1,.45-1.23,8.17,8.17,0,0,1,.57-1,9.17,9.17,0,0,1,.66-1,7.36,7.36,0,0,1,.86-1l.12-.12c.13.16.3.37.51.65s.43.53.64.82.41.52.57.76a3,3,0,0,1,.31.49,4.75,4.75,0,0,1-.31,1.68,8.7,8.7,0,0,1-.8,1.66,5.52,5.52,0,0,0,2.17-.59,8.23,8.23,0,0,0,2.11-1.7l.45.49a6,6,0,0,1,.46.51,10.29,10.29,0,0,1-1.62,1.42,7.68,7.68,0,0,1-1.58.9,7.58,7.58,0,0,1-1.6.49,10.39,10.39,0,0,1-1.68.14,11.65,11.65,0,0,1-1.43,1.29,10.11,10.11,0,0,1-1.56,1,8.06,8.06,0,0,1-1.56.67,5.41,5.41,0,0,1-1.49.23,2.52,2.52,0,0,1-1.21-.35,5.53,5.53,0,0,1-1.13-.86,5.41,5.41,0,0,1-.84-1.11,2.19,2.19,0,0,1-.33-1,11,11,0,0,1,.41-3,9,9,0,0,1,1.25-2.73,8.89,8.89,0,0,1,2.15-2.27,9.61,9.61,0,0,1,3.14-1.48.43.43,0,0,1,.2-.06l.25,0a1,1,0,0,1,.57.21,3.07,3.07,0,0,1,.56.45,2.57,2.57,0,0,1,.45.51.8.8,0,0,1,.18.31.76.76,0,0,1-.29.26,4.41,4.41,0,0,0-.69.49,9.5,9.5,0,0,0-1,1,13.89,13.89,0,0,0-1.29,1.72,10.6,10.6,0,0,0-1.43,2.87A7.54,7.54,0,0,0,43.9,106.48Zm21,.28c0,.08,0,.11.12.11a1.46,1.46,0,0,0,.64-.25c.3-.17.64-.38,1-.64s.77-.56,1.19-.88l1.19-.94c.38-.31.71-.6,1-.86l.71-.59.41.45c.17.19.32.36.47.51-.29.29-.66.63-1.1,1s-.9.82-1.42,1.27-1,.86-1.61,1.29-1.08.79-1.6,1.13a14.68,14.68,0,0,1-1.46.8,2.88,2.88,0,0,1-1.13.31,1.68,1.68,0,0,1-.75-.21,3.47,3.47,0,0,1-.78-.53,3.64,3.64,0,0,1-.6-.7,1.43,1.43,0,0,1-.24-.75,5.77,5.77,0,0,1,.24-1.19c.15-.58.34-1.27.56-2A23.6,23.6,0,0,1,60,106.19c-.56.6-1.07,1.11-1.54,1.54s-.88.78-1.23,1l-.78.59a1,1,0,0,1-.37.13,1.48,1.48,0,0,1-.39.06,1.86,1.86,0,0,1-.82-.23,3.57,3.57,0,0,1-.82-.55,3.23,3.23,0,0,1-.65-.74,1.47,1.47,0,0,1-.27-.78,6.05,6.05,0,0,1,.29-1.43c.18-.66.44-1.46.76-2.38s.69-2,1.12-3.11.89-2.35,1.38-3.61c0-.07.05-.09.06-.08h.12a5.16,5.16,0,0,1,1,.31c.42.16.84.33,1.25.53a11.39,11.39,0,0,1,1.07.57c.3.17.45.28.45.35s-.14.3-.31.64l-.57,1.23c-.21.47-.44,1-.68,1.55s-.46,1.07-.67,1.58-.36,1-.49,1.38a3.33,3.33,0,0,0-.19.9c0,.06,0,.08.08.08a1.85,1.85,0,0,0,.68-.41A11.14,11.14,0,0,0,59.8,104a26.84,26.84,0,0,0,1.76-2.3,34.8,34.8,0,0,0,2-3.42l.55-1.54a.23.23,0,0,1,.25-.16,1.68,1.68,0,0,1,.59.27c.31.17.63.38,1,.61a8.16,8.16,0,0,1,.94.68,1.69,1.69,0,0,1,.45.47s0,.11,0,.22a.7.7,0,0,1-.06.23c-.13.35-.28.77-.45,1.25s-.34,1-.53,1.49-.33,1-.5,1.54-.33,1-.47,1.46-.24.84-.33,1.2A3.51,3.51,0,0,0,64.86,106.76ZM75,101.27A23.44,23.44,0,0,1,77,99.12a15.72,15.72,0,0,1,1.54-1.35,5.87,5.87,0,0,1,1.15-.7,2.15,2.15,0,0,1,.71-.2,1.3,1.3,0,0,1,.68.24,4.19,4.19,0,0,1,.72.57,7.4,7.4,0,0,1,.69.68c.2.23.38.42.52.57a.8.8,0,0,1,.26.46,2,2,0,0,1,.06.49,7.28,7.28,0,0,1-.32,2,13.16,13.16,0,0,1-.82,2.15,15.19,15.19,0,0,1-1.15,2,11.49,11.49,0,0,1-1.31,1.63,11.14,11.14,0,0,0,1.15-.57c.41-.24.81-.48,1.2-.74s.77-.53,1.15-.8l1.07-.84c.8-.63,1.56-1.3,2.31-2l.88,1c-.43.41-.92.83-1.45,1.29s-1.07.91-1.64,1.35-1.16.86-1.76,1.27-1.15.76-1.7,1.07a11,11,0,0,1-1.52.74,3.3,3.3,0,0,1-1.21.28,2.3,2.3,0,0,1-.88-.22,6.53,6.53,0,0,1-1-.49,5.18,5.18,0,0,1-.85-.62.94.94,0,0,1-.36-.63c0-.1.07-.19.2-.27a6.64,6.64,0,0,0,.6-.47,7.76,7.76,0,0,0,.94-1A11.84,11.84,0,0,0,78,104c.25-.47.48-1,.71-1.44s.41-1,.58-1.41.3-.82.39-1.13a2.56,2.56,0,0,0,.16-.67.33.33,0,0,0-.06-.23A.62.62,0,0,0,79.7,99a.33.33,0,0,0-.14,0,4.33,4.33,0,0,0-1.11.88,18.29,18.29,0,0,0-1.93,2.27,37.54,37.54,0,0,0-4.73,8.42q-.92,2.61-1.83,5.29t-1.8,5.33l-5,1.17q1.13-3.23,2.36-6.4T68,109.65c.8-2.11,1.58-4.23,2.37-6.35s1.5-4.25,2.2-6.39a1.51,1.51,0,0,1,.1-.29.25.25,0,0,1,.22-.1,4.27,4.27,0,0,1,.76.37,7,7,0,0,1,.88.61,7.91,7.91,0,0,1,.8.68,3.5,3.5,0,0,1,.49.61.33.33,0,0,1,0,.21l-.1.32Zm25.08,2.4a33.39,33.39,0,0,1-3.4,3,20,20,0,0,1-3,1.92,13,13,0,0,1-2.78,1,10.86,10.86,0,0,1-2.56.31,2.31,2.31,0,0,1-1.17-.39,6.29,6.29,0,0,1-1.19-.95,5.91,5.91,0,0,1-.94-1.16,2.15,2.15,0,0,1-.37-1,9.05,9.05,0,0,1,.45-2.93A9.49,9.49,0,0,1,86.26,101a10.44,10.44,0,0,1,1.64-1.9,11.08,11.08,0,0,1,1.94-1.37,10.5,10.5,0,0,1,2-.82,7.06,7.06,0,0,1,1.84-.27,2.33,2.33,0,0,1,1.19.35,5,5,0,0,1,1.09.86,4.34,4.34,0,0,1,.78,1.08,2,2,0,0,1,.31.95,2.17,2.17,0,0,1-.56,1.37,8.21,8.21,0,0,1-1.56,1.41,22.85,22.85,0,0,1-2.45,1.48c-.95.5-2,1-3.14,1.5a7.34,7.34,0,0,0-.06.92,1,1,0,0,0,.26.82,1.6,1.6,0,0,0,1,.22,6.88,6.88,0,0,0,2.42-.43,11.2,11.2,0,0,0,2.21-1.12,15.47,15.47,0,0,0,2-1.56c.65-.58,1.3-1.18,1.94-1.78Zm-6.87-4.88a1.32,1.32,0,0,0-.86.43,5.87,5.87,0,0,0-.94,1.09,13.48,13.48,0,0,0-.9,1.58,15.7,15.7,0,0,0-.74,1.84c.48-.31,1-.64,1.41-1a11.22,11.22,0,0,0,1.25-1.09,6.1,6.1,0,0,0,.87-1.19,2.42,2.42,0,0,0,.34-1.21.45.45,0,0,0-.12-.31A.34.34,0,0,0,93.22,98.79Zm14.78,1.6c-.17.51-.38,1.09-.64,1.74s-.49,1.29-.72,1.91-.44,1.19-.61,1.7a4.08,4.08,0,0,0-.23,1.1.1.1,0,0,0,.11.11,1.45,1.45,0,0,0,.65-.25c.28-.17.61-.39,1-.66l1.18-.9,1.15-1,1-.88.69-.59.41.45c.17.19.32.36.47.51l-1.08,1.06c-.43.4-.9.82-1.4,1.25s-1,.86-1.57,1.29a19,19,0,0,1-1.58,1.15,11.53,11.53,0,0,1-1.42.82,2.76,2.76,0,0,1-1.12.31,1.87,1.87,0,0,1-.74-.21,4,4,0,0,1-.86-.51,3.44,3.44,0,0,1-.7-.67,1.13,1.13,0,0,1-.3-.72c.2-.87.39-1.63.59-2.28s.38-1.21.55-1.66.32-.85.45-1.14.22-.5.29-.64a4.71,4.71,0,0,1-.45-.22l-.43-.23c-.21.22-.44.45-.7.7s-.5.5-.76.74l-.79.73-.7.64-.94-1L100,102c.47-.47.94-.93,1.39-1.4l-.88-.55c-.26-.18-.48-.35-.66-.49s-.42-.3-.59-.43a.25.25,0,0,1-.12-.25,1.58,1.58,0,0,1,.18-.61,6,6,0,0,1,.41-.86c.17-.31.35-.62.55-.93s.38-.62.56-.88.34-.47.47-.63.24-.25.28-.25a1,1,0,0,1,.25.1,4.26,4.26,0,0,1,.49.23,3.59,3.59,0,0,1,.47.27,1,1,0,0,1,.27.28,3.6,3.6,0,0,1,0,.41c0,.21,0,.46,0,.76q.77.39,1.56.9c.54.32,1,.63,1.47.93s1,.69,1.48,1a.62.62,0,0,1,.31.39A.65.65,0,0,1,108,100.39Zm26.53-18.71q-.89,2.31-1.76,4.45c-.57,1.43-1.15,2.83-1.72,4.18s-1.13,2.68-1.7,4-1.15,2.58-1.74,3.84l3-.44,2.81-.43,2.25-.34,1.23-.19q1.66-4,3.18-8.07t3.07-8.36l1.23,1.23,1.27,1.27c.4.41.75.76,1,1.08s.51.5.61.62q-1.36,2.91-2.68,5.69T142,95.62c1.16-.28,2.08-.54,2.77-.78l1.56-.56c.37-.15.59-.23.69-.26s.12,0,.09.14-.12.29-.25.57-.29.56-.49.89-.39.7-.62,1.08-.47.7-.71,1a5.59,5.59,0,0,1-.64.79,1.11,1.11,0,0,1-.53.33l-1,.15-1.17.2-1.58.23q-2,4.14-3.83,7.52c-1.18,2.24-2.26,4.13-3.22,5.67-.48-.39-.94-.78-1.37-1.17a3.94,3.94,0,0,0-1.27-.79,26.16,26.16,0,0,0-1.38-5,43.21,43.21,0,0,0-2.48-5.39c-.93,2-1.87,3.9-2.84,5.82s-2,3.89-3.06,5.92c-.56-.45-1.1-.86-1.6-1.21s-1-.64-1.31-.9c.57-1.13,1.2-2.42,1.87-3.86s1.38-3,2.09-4.73,1.47-3.5,2.21-5.39S125.46,92,126.19,90s1.43-4.07,2.12-6.15,1.34-4.19,1.94-6.27l1.15,1.09c.4.35.8.7,1.17,1.06s.75.67,1.08,1S134.28,81.39,134.53,81.68Zm-2.43,25.78q1.74-3.63,3.38-7.4-2.86.38-6.66.76c.35.55.69,1.12,1,1.72s.62,1.19.9,1.78.54,1.15.76,1.7S131.92,107,132.1,107.46Zm27.76-3.79a33.39,33.39,0,0,1-3.4,3,20.06,20.06,0,0,1-3,1.92,13,13,0,0,1-2.77,1,10.92,10.92,0,0,1-2.56.31,2.31,2.31,0,0,1-1.17-.39,6,6,0,0,1-1.19-.95,5.91,5.91,0,0,1-.94-1.16,2.05,2.05,0,0,1-.37-1,9.05,9.05,0,0,1,.45-2.93A9.17,9.17,0,0,1,146,101a10.06,10.06,0,0,1,1.64-1.9,11.4,11.4,0,0,1,1.93-1.37,10.33,10.33,0,0,1,2-.82,7,7,0,0,1,1.83-.27,2.31,2.31,0,0,1,1.19.35,5.1,5.1,0,0,1,1.1.86,4.92,4.92,0,0,1,.78,1.08,2,2,0,0,1,.31.95,2.19,2.19,0,0,1-.57,1.37,7.64,7.64,0,0,1-1.56,1.41,23.66,23.66,0,0,1-2.44,1.48c-.95.5-2,1-3.14,1.5a7.34,7.34,0,0,0-.06.92,1,1,0,0,0,.25.82,1.64,1.64,0,0,0,1,.22,6.92,6.92,0,0,0,2.42-.43,11.48,11.48,0,0,0,2.21-1.12,15.47,15.47,0,0,0,2-1.56c.65-.58,1.29-1.18,1.93-1.78ZM153,98.79a1.34,1.34,0,0,0-.86.43,5.85,5.85,0,0,0-.93,1.09,11.12,11.12,0,0,0-.9,1.58,12.85,12.85,0,0,0-.74,1.84,17,17,0,0,0,1.4-1,9.67,9.67,0,0,0,1.25-1.09,5.78,5.78,0,0,0,.88-1.19,2.51,2.51,0,0,0,.33-1.21.49.49,0,0,0-.11-.31A.35.35,0,0,0,153,98.79Zm16.94,8a.1.1,0,0,0,.11.11,1.34,1.34,0,0,0,.59-.25c.27-.17.59-.38.94-.64s.72-.56,1.11-.88l1.15-1c.37-.31.69-.6,1-.86l.68-.6c.12.11.26.27.43.46l.49.53-1.13,1.06c-.43.4-.9.82-1.41,1.27s-1,.88-1.54,1.32-1.06.82-1.56,1.16a10.44,10.44,0,0,1-1.45.82,2.79,2.79,0,0,1-1.19.33,2.79,2.79,0,0,1-1.54-.53,2.1,2.1,0,0,1-.59-.56,1.26,1.26,0,0,1-.23-.75c0-.1,0-.22,0-.37a4.57,4.57,0,0,1,0-.58,6,6,0,0,1,.15-.88c.08-.35.2-.78.35-1.29a18,18,0,0,1-1.52,1.42,21.44,21.44,0,0,1-3.75,2.6,9.48,9.48,0,0,1-1.78.82.34.34,0,0,1-.15,0H159a1,1,0,0,1-.51-.19,3,3,0,0,1-.64-.53,2.91,2.91,0,0,1-.53-.72,1.62,1.62,0,0,1-.23-.82,6.58,6.58,0,0,1,.11-.79,7.89,7.89,0,0,1,.57-1.68,13.91,13.91,0,0,1,1.29-2.3,14.41,14.41,0,0,1,2.34-2.64A19.43,19.43,0,0,1,163,98.59c.5-.34,1.06-.68,1.7-1a10.41,10.41,0,0,1,2-.84l.06,0a.1.1,0,0,1,.1,0,3.56,3.56,0,0,1,.55.25c.22.11.43.22.64.35a3.14,3.14,0,0,1,.57.38A1.11,1.11,0,0,1,169,98a.06.06,0,0,1,0,.06l0,0a12.26,12.26,0,0,0-1.66,1c-.52.38-1,.74-1.39,1.07s-.9.81-1.31,1.2a10.78,10.78,0,0,0-2,2.44,3.7,3.7,0,0,0-.54,1.46q0,.33.27.33a1.57,1.57,0,0,0,.68-.21,9.82,9.82,0,0,0,1-.61c.35-.26.74-.56,1.15-.89l1.33-1.1c.4-.32.79-.68,1.17-1s.67-.67,1-1.08a8.38,8.38,0,0,0,.9-1.23s0,0,0,0a0,0,0,0,1,0,0,2.35,2.35,0,0,1,.49.53,7.5,7.5,0,0,1,.51.78,6.22,6.22,0,0,1,.39.84,1.58,1.58,0,0,1,.18.61,13.69,13.69,0,0,0-.71,1.68c-.15.49-.28.93-.37,1.31a7.26,7.26,0,0,0-.15,1C169.92,106.41,169.92,106.61,169.92,106.76Zm9.64.35a2,2,0,0,0,.84-.27,13.25,13.25,0,0,0,1.2-.69c.43-.28.88-.6,1.34-.94s.91-.67,1.31-1l1.12-.9.72-.61c.12.12.25.27.41.45s.32.36.47.51l-1.08,1.06c-.43.4-.9.82-1.4,1.25s-1,.86-1.57,1.29a19,19,0,0,1-1.58,1.15,11.53,11.53,0,0,1-1.42.82,2.76,2.76,0,0,1-1.12.31,2.44,2.44,0,0,1-1.29-.43,8.43,8.43,0,0,1-1.25-1,8.55,8.55,0,0,1-1-1.17,2.62,2.62,0,0,1-.47-.88.73.73,0,0,1,0-.27v-.37A15,15,0,0,1,175,103c.16-1,.38-2.06.65-3.17s.58-2.22.94-3.32a27.81,27.81,0,0,1,1.13-2.93,41.39,41.39,0,0,1,2.44-4.6,34.88,34.88,0,0,1,2.48-3.5A22.62,22.62,0,0,1,185,82.93a20.94,20.94,0,0,1,2-1.64,9.77,9.77,0,0,1,1.5-.9,2.72,2.72,0,0,1,.86-.27,2.6,2.6,0,0,1,.74.41,8.11,8.11,0,0,1,.73.54,6.4,6.4,0,0,1,.58.59l.37.41a.68.68,0,0,1,.2.31,1,1,0,0,1,.06.37,4.83,4.83,0,0,1-.24,1.29,11.63,11.63,0,0,1-.88,2.09c-.43.84-1,1.84-1.79,3s-1.75,2.54-3,4.1c-.58.73-1.18,1.47-1.82,2.23s-1.18,1.36-1.89,2.13-1.46,1.5-2.21,2.2a32.58,32.58,0,0,0-.8,3.79,22.1,22.1,0,0,0-.22,2.56,2,2,0,0,0,.1.78A.31.31,0,0,0,179.56,107.11Zm3.13-14.32-.63,1.45-.52,1.38c.4-.45.77-.89,1.09-1.3s.63-.78.86-1.08.52-.68.74-1c.91-1.28,1.7-2.45,2.37-3.52s1.21-2,1.64-2.81a16.83,16.83,0,0,0,.93-2,3.93,3.93,0,0,0,.32-1.18.35.35,0,0,0,0-.13s0-.06-.1-.06-.38.19-.8.59A12,12,0,0,0,187,84.92c-.6.83-1.28,1.9-2,3.2A47.51,47.51,0,0,0,182.69,92.79ZM188,109.55a1.93,1.93,0,0,1-.88-.31,6.17,6.17,0,0,1-1-.74,6.75,6.75,0,0,1-.88-.9,1.37,1.37,0,0,1-.37-.8,8.43,8.43,0,0,1,.33-1.86c.21-.85.49-1.81.84-2.89s.75-2.26,1.19-3.5.91-2.44,1.37-3.63h-2.77s0,0,0,0a.91.91,0,0,1,.09-.33,3.31,3.31,0,0,1,.22-.47,1.74,1.74,0,0,1,.29-.45.82.82,0,0,1,.31-.27l2.54-.12c.37-.88.71-1.7,1-2.44s.64-1.4.9-1.93l.19-.45a2.36,2.36,0,0,1,.31-.49,3.94,3.94,0,0,1,.55-.51,5.85,5.85,0,0,1,.94-.55c.29-.14.63-.29,1-.46s.82-.33,1.22-.47.76-.26,1.09-.35a2.46,2.46,0,0,1,.7-.16c.13,0,.2,0,.2.08v0s0,0,0,.09-.22.42-.43.86-.47,1-.78,1.64-.64,1.4-1,2.25-.74,1.72-1.13,2.66l4.69-.18c.13,0,.17.08.11.24a2.44,2.44,0,0,1-.29.54,5.54,5.54,0,0,1-.51.65,4,4,0,0,1-.47.5.26.26,0,0,1-.15.08.87.87,0,0,1-.3,0H193.2c-.47,1.13-.92,2.28-1.35,3.44s-.81,2.26-1.15,3.3-.61,2-.82,2.87a10,10,0,0,0-.3,2.15.11.11,0,0,0,.12.12,1.58,1.58,0,0,0,.65-.24c.28-.17.6-.38,1-.64s.75-.55,1.16-.86.78-.62,1.15-.92l1-.84.69-.59c.12.12.25.27.41.45s.32.36.47.51l-1.08,1.06c-.43.4-.9.82-1.4,1.25s-1,.86-1.57,1.29a19,19,0,0,1-1.58,1.15,11.53,11.53,0,0,1-1.42.82A2.76,2.76,0,0,1,188,109.55Zm18.19-2.71a1.89,1.89,0,0,0,.78-.26c.32-.17.68-.38,1.07-.64s.82-.55,1.23-.86l1.19-.94,1-.84.68-.59c.12.12.26.27.41.45l.47.51c-.28.29-.64.63-1.07,1s-.89.79-1.39,1.21-1,.82-1.54,1.23-1.06.77-1.56,1.09a9.88,9.88,0,0,1-1.43.78,2.8,2.8,0,0,1-1.11.3,2.54,2.54,0,0,1-.88-.2,4.74,4.74,0,0,1-1-.47,4,4,0,0,1-.78-.6,1.06,1.06,0,0,1-.31-.69,8.13,8.13,0,0,1,.31-2c.19-.74.42-1.5.68-2.29s.56-1.54.86-2.3.6-1.45.86-2a2.36,2.36,0,0,0-.6.43c-.3.26-.67.62-1.1,1.07s-.88,1-1.38,1.62a25.69,25.69,0,0,0-1.49,2.11c-.48.78-.94,1.63-1.39,2.54a18.73,18.73,0,0,0-1.11,2.85.69.69,0,0,1-.17.32.56.56,0,0,1-.36.09,1.37,1.37,0,0,1-.54-.17,7.74,7.74,0,0,1-.78-.43c-.28-.16-.54-.33-.81-.51a5.37,5.37,0,0,1-.62-.49c-.08-.09-.14-.17-.2-.25a.68.68,0,0,1-.07-.35,14.42,14.42,0,0,1,.43-3.17,36.86,36.86,0,0,1,1.19-4.06q.74-2.2,1.74-4.59c.67-1.6,1.39-3.17,2.14-4.71s1.57-3,2.39-4.37A39.58,39.58,0,0,1,204.43,83a17.25,17.25,0,0,1,2.3-2.56,3.65,3.65,0,0,1,2-1,3.69,3.69,0,0,1,.9.43,6.46,6.46,0,0,1,.88.65,8,8,0,0,1,.72.68,4.59,4.59,0,0,1,.51.57.89.89,0,0,1,.16.37c0,.14,0,.25,0,.31a5.13,5.13,0,0,1-.39,1.74,18.72,18.72,0,0,1-1.1,2.32,32.27,32.27,0,0,1-1.72,2.78c-.66,1-1.4,2-2.22,3s-1.69,2.07-2.64,3.13-1.92,2.08-3,3.07c-.26.7-.49,1.38-.7,2,.7-.73,1.35-1.34,1.93-1.84a16.56,16.56,0,0,1,1.56-1.17,6.29,6.29,0,0,1,1.16-.63,2.15,2.15,0,0,1,.74-.19,1.77,1.77,0,0,1,.62.23,9.14,9.14,0,0,1,.94.53,9.47,9.47,0,0,1,.9.64,2.12,2.12,0,0,1,.51.55.65.65,0,0,1,0,.28,2.5,2.5,0,0,1-.08.25c-.12.35-.26.76-.43,1.23s-.33.94-.53,1.46l-.54,1.55c-.19.52-.35,1-.49,1.44s-.26.82-.35,1.16a2.57,2.57,0,0,0-.14.68A.11.11,0,0,0,206.17,106.84ZM204.45,90c-.31.66-.62,1.33-.92,2s-.57,1.31-.84,2c.87-1.12,1.72-2.25,2.54-3.39s1.55-2.27,2.19-3.33A24.55,24.55,0,0,0,209,84.34a6,6,0,0,0,.58-2.27c0-.29-.05-.43-.15-.43s-.4.22-.72.64-.69,1-1.14,1.74-.93,1.63-1.46,2.66S205,88.83,204.45,90Zm24.28,13.59c-1.18,1.06-2.38,2.05-3.62,3s-2.47,1.84-3.71,2.72c-.18.54-.39,1.12-.62,1.73s-.52,1.31-.86,2.09a24.93,24.93,0,0,1-1.29,2.52,22.68,22.68,0,0,1-1.55,2.31,18.41,18.41,0,0,1-1.66,2,15.53,15.53,0,0,1-1.69,1.54,7.67,7.67,0,0,1-1.59,1,3.3,3.3,0,0,1-1.42.37,1.78,1.78,0,0,1-.76-.23,4.1,4.1,0,0,1-.86-.61,3.5,3.5,0,0,1-.69-.76,1.37,1.37,0,0,1-.29-.76,5,5,0,0,1,.66-2.43,12,12,0,0,1,1.84-2.36,27.92,27.92,0,0,1,2.71-2.42c1.06-.81,2.19-1.64,3.4-2.5.38-1,.75-2,1.1-3.13s.71-2.17,1-3.24a23.5,23.5,0,0,1-1.62,1.88,19.09,19.09,0,0,1-1.45,1.36,13.27,13.27,0,0,1-1.15.88c-.32.24-.57.41-.74.53a1,1,0,0,1-.37.14,1.43,1.43,0,0,1-.39.06,1.76,1.76,0,0,1-.82-.24,3.22,3.22,0,0,1-.82-.56,3.28,3.28,0,0,1-.65-.75,1.41,1.41,0,0,1-.27-.78,5.55,5.55,0,0,1,.29-1.37c.19-.63.44-1.4.76-2.3s.69-1.91,1.12-3l1.38-3.57c0-.07,0-.09.06-.08h.12a5.16,5.16,0,0,1,1,.31c.43.16.84.33,1.25.53a11.39,11.39,0,0,1,1.07.57c.3.17.45.28.45.35s-.14.3-.31.64l-.57,1.23c-.21.47-.44,1-.68,1.55s-.46,1.07-.67,1.58-.36,1-.49,1.38a3.33,3.33,0,0,0-.19.9c0,.06,0,.08.08.08a1.56,1.56,0,0,0,.58-.35A8.6,8.6,0,0,0,217,104.3c.45-.51,1-1.16,1.54-1.94a33.53,33.53,0,0,0,1.82-2.85c.26-.86.47-1.54.64-2.05s.28-.78.33-.78A2.11,2.11,0,0,1,222,97a12.07,12.07,0,0,1,1,.71,8.08,8.08,0,0,1,1,.8c.29.26.43.46.43.6a.9.9,0,0,1,0,.18.7.7,0,0,1-.06.17c-.3.91-.56,1.74-.78,2.48l-.61,2c-.17.61-.32,1.17-.46,1.69s-.27,1-.4,1.49c1-.7,1.95-1.42,2.91-2.15s1.92-1.52,2.86-2.32ZM210.6,120.76c.23,0,.56-.23,1-.68a15.06,15.06,0,0,0,1.34-1.72,26.21,26.21,0,0,0,1.45-2.36c.49-.86.93-1.71,1.31-2.54L214,114.82a15.57,15.57,0,0,0-1.72,1.63,10.08,10.08,0,0,0-1.35,1.87,4.52,4.52,0,0,0-.55,2.15C210.4,120.66,210.47,120.76,210.6,120.76Z"/><path class="cls-1" d="M118.87,19.48l3-.19a14.88,14.88,0,0,1,1.76-.07c.51,0,.72-.14.83-.63a58.48,58.48,0,0,1,2.16-6.43,20.84,20.84,0,0,0,1-3.91,7.58,7.58,0,0,0-1.4-5.69,1.57,1.57,0,0,1,1-2.53,1.61,1.61,0,0,1,1.68.78,10.44,10.44,0,0,1,1.78,8.86,70.73,70.73,0,0,1-2.5,7.49c-.17.49-.3,1-.46,1.49-.09.32,0,.47.34.47l6,.21a.48.48,0,0,0,.57-.3c.68-1.51,1.42-3,2.1-4.5a5.54,5.54,0,0,0,.56-2.66,4.1,4.1,0,0,0-1.18-2.63,1.6,1.6,0,0,1-.1-2.43,1.66,1.66,0,0,1,2.47.26,6.9,6.9,0,0,1,1.68,7.53,33.51,33.51,0,0,1-2,4.39c-.26.53-.19.67.42.74a49,49,0,0,1,13.63,3.12,13.87,13.87,0,0,1,3.88,2.3A5,5,0,0,1,158,29.4c-.55,10.23-5.37,17.91-13.95,23.39a15.73,15.73,0,0,1-1.66.93.7.7,0,0,0-.43.71c0,.8,0,1.62,0,2.43A4.3,4.3,0,0,1,140,60.71a13.66,13.66,0,0,1-5.65,2.34,31.58,31.58,0,0,1-15.83-.58,10.25,10.25,0,0,1-3.91-2.07,4.13,4.13,0,0,1-1.54-3.4c0-.78,0-1.57,0-2.36a1,1,0,0,0-.59-1A29.11,29.11,0,0,1,99.58,40.08a26.83,26.83,0,0,1-2.5-11,4.61,4.61,0,0,1,1.39-3.48,13.21,13.21,0,0,1,4.65-2.88,41.41,41.41,0,0,1,10.4-2.6,2.2,2.2,0,0,0,2.14-1.56c.5-1.43,1.37-2.71,1.92-4.14.76-2,.76-3.82-.86-5.43a1.52,1.52,0,0,1,.14-2.23,1.55,1.55,0,0,1,2.23.1,6.82,6.82,0,0,1,2,7.33,29.42,29.42,0,0,1-1.93,4.42A2.41,2.41,0,0,0,118.87,19.48Zm10.19,15.59a85.66,85.66,0,0,0,10.25-.7,50.32,50.32,0,0,0,11-2.48A11.37,11.37,0,0,0,154,30a1.46,1.46,0,0,0,0-2.53,8.72,8.72,0,0,0-2.78-1.58,51.33,51.33,0,0,0-13.85-3.05c-.42,0-.49.11-.45.46a4.44,4.44,0,0,0,1.24,2.61,1.58,1.58,0,0,1,0,2.38,1.61,1.61,0,0,1-2.39-.2A6.86,6.86,0,0,1,133.62,23c0-.34-.08-.47-.42-.48-1.79,0-3.6-.08-5.39-.16-.49,0-.47.21-.41.56A7.58,7.58,0,0,0,128.73,26a1.6,1.6,0,1,1-2.6,1.84,10.23,10.23,0,0,1-2-5c0-.34-.13-.44-.47-.42-1.77.12-3.54.23-5.31.32-.51,0-.62.26-.55.71A4.4,4.4,0,0,0,119,25.9a1.61,1.61,0,1,1-2.35,2.19,7.11,7.11,0,0,1-2.22-4.34c0-.47-.2-.56-.66-.46-1.1.24-2.2.38-3.29.61a33.24,33.24,0,0,0-7.73,2.43,7,7,0,0,0-1.86,1.22,1.39,1.39,0,0,0,0,2.27,6.75,6.75,0,0,0,2,1.31,28.44,28.44,0,0,0,5.71,1.93C114.84,34.58,121.16,35.05,129.06,35.07Zm-28.2-1.48.1.57a6.07,6.07,0,0,0,2.34,4,25.15,25.15,0,0,0,8.54,4.47,50.45,50.45,0,0,0,14,2,56.79,56.79,0,0,0,16.58-1.73A23,23,0,0,0,153,37c.92-.94.9-2.19,1.3-3.46a23,23,0,0,1-3.63,1.61,65.86,65.86,0,0,1-17.73,3,95.37,95.37,0,0,1-17.63-.61C110.34,36.86,105.44,36,100.86,33.59Zm4.6,10c6.26,7.7,14.41,11.13,24.29,10.57A26.88,26.88,0,0,0,140.82,51a26.59,26.59,0,0,0,8.83-7.39.88.88,0,0,0-.64.19,32.33,32.33,0,0,1-5.49,2.13A54.68,54.68,0,0,1,130,47.82a69.07,69.07,0,0,1-11.59-.52A40.82,40.82,0,0,1,105.46,43.55ZM116.33,55.4a10.57,10.57,0,0,1,0,1.39,1.56,1.56,0,0,0,.92,1.65,11.46,11.46,0,0,0,2.46,1.07,27.77,27.77,0,0,0,9.68,1,21.73,21.73,0,0,0,7.53-1.59c1.28-.53,2.08-1.26,1.85-2.8-.1-.58-.1-.72-.73-.5A31.68,31.68,0,0,1,122.7,57,35.12,35.12,0,0,1,116.33,55.4Z"/><path class="cls-1" d="M3.06,152.08a3,3,0,0,0-.9.63,2.39,2.39,0,0,0-.46.9.85.85,0,0,1,.66.89,3.34,3.34,0,0,1-.27,1.12,2.19,2.19,0,0,1-1,.24,1.13,1.13,0,0,1-.82-.28,1.13,1.13,0,0,1-.28-.81,3.17,3.17,0,0,1,.73-2,2.11,2.11,0,0,1,1.67-1A1,1,0,0,1,3.06,152.08Zm3,0a3,3,0,0,0-.9.63,2.39,2.39,0,0,0-.46.9.85.85,0,0,1,.66.89,3.34,3.34,0,0,1-.27,1.12,2.19,2.19,0,0,1-1,.24,1.13,1.13,0,0,1-.81-.28,1.13,1.13,0,0,1-.29-.81,3.18,3.18,0,0,1,.74-2,2.08,2.08,0,0,1,1.66-1A1,1,0,0,1,6.06,152.08Zm1.74.23a15,15,0,0,1,3.76-.57c2.29,0,3.44.79,3.44,2.38a2.42,2.42,0,0,1-1.37,2.22,3,3,0,0,1,1.52.87,2.21,2.21,0,0,1,.6,1.59,3.27,3.27,0,0,1-1.34,2.79,5.45,5.45,0,0,1-3.3,1,7,7,0,0,1-3.4-.78,16.47,16.47,0,0,0,.46-4.37A32.55,32.55,0,0,0,7.8,152.31ZM10.06,161a4.33,4.33,0,0,0,1.32.21,2.76,2.76,0,0,0,1.71-.51,1.76,1.76,0,0,0,.68-1.47q0-1.8-1.95-1.8a5,5,0,0,0-1.89.39C9.93,158.78,10,159.84,10.06,161Zm-.15-4.5.62-.11.64-.1.56-.14a1.74,1.74,0,0,0,.52-.21,2.85,2.85,0,0,0,.39-.33,1.47,1.47,0,0,0,.38-1.09c0-.93-.56-1.4-1.67-1.4a6,6,0,0,0-1.32.18C10,155.3,9.91,156.37,9.91,156.45Zm8.56,2.62a3.57,3.57,0,0,0,.35,1.71,1.21,1.21,0,0,0,1.15.62,1.55,1.55,0,0,0,1.26-.54,2,2,0,0,0,.47-1.34,1.52,1.52,0,0,1,.88.26.8.8,0,0,1,.38.7A1.83,1.83,0,0,1,22,162a3.91,3.91,0,0,1-2.09.62,3,3,0,0,1-2.47-.92,4.22,4.22,0,0,1-.77-2.74,4.62,4.62,0,0,1,1-3.05,3.4,3.4,0,0,1,2.75-1.24,3,3,0,0,1,1.87.54A1.9,1.9,0,0,1,23,156.9a1.82,1.82,0,0,1-1,1.68,5,5,0,0,1-2.46.55A9.51,9.51,0,0,1,18.47,159.07Zm0-1.18a4.76,4.76,0,0,0,.94.09,3.74,3.74,0,0,0,1.82-.41,2.5,2.5,0,0,0,.09-.57.91.91,0,0,0-.38-.79,1.73,1.73,0,0,0-1-.27,1.83,1.83,0,0,0-1.17.42A4.66,4.66,0,0,0,18.49,157.89ZM25,152.68a2.18,2.18,0,0,1,1-.24,1,1,0,0,1,.79.32,1.26,1.26,0,0,1,.32.93c0,.41,0,.87-.08,1.39a7.26,7.26,0,0,0,2.15-.31,1.33,1.33,0,0,1,.18.7.77.77,0,0,1-.36.65,1.24,1.24,0,0,1-.71.24,4.17,4.17,0,0,1-.81-.09l-.58-.11q0,.14-.09.54c0,.27-.08.51-.11.71a12.31,12.31,0,0,0-.12,1.77c0,1.37.45,2,1.34,2a2.47,2.47,0,0,0,1.14-.34,1.26,1.26,0,0,1,.19.73.78.78,0,0,1-.49.71,2.58,2.58,0,0,1-1.16.24q-2.64,0-2.64-3c0-.29,0-.82.12-1.58a16.53,16.53,0,0,0,.14-1.84,3.18,3.18,0,0,0-1.16.25,1.07,1.07,0,0,1-.18-.61.76.76,0,0,1,.26-.59.88.88,0,0,1,.63-.24,4.42,4.42,0,0,1,.49,0,2.58,2.58,0,0,0,0-.32A6.94,6.94,0,0,0,25,152.68Zm5.92,0a2.18,2.18,0,0,1,1-.24,1,1,0,0,1,.79.32,1.26,1.26,0,0,1,.32.93c0,.41,0,.87-.08,1.39a7.26,7.26,0,0,0,2.15-.31,1.33,1.33,0,0,1,.18.7.77.77,0,0,1-.36.65,1.24,1.24,0,0,1-.71.24,4.17,4.17,0,0,1-.81-.09l-.58-.11q0,.14-.09.54c0,.27-.08.51-.11.71a12.31,12.31,0,0,0-.12,1.77c0,1.37.45,2,1.34,2a2.47,2.47,0,0,0,1.14-.34,1.26,1.26,0,0,1,.19.73.78.78,0,0,1-.49.71,2.58,2.58,0,0,1-1.16.24q-2.64,0-2.64-3c0-.29,0-.82.12-1.58a16.53,16.53,0,0,0,.14-1.84,3.18,3.18,0,0,0-1.16.25,1.07,1.07,0,0,1-.18-.61.76.76,0,0,1,.26-.59.88.88,0,0,1,.63-.24,4.42,4.42,0,0,1,.49,0,2.58,2.58,0,0,0,0-.32A6.94,6.94,0,0,0,30.92,152.68Zm6.69,6.39a3.58,3.58,0,0,0,.34,1.71,1.23,1.23,0,0,0,1.16.62,1.55,1.55,0,0,0,1.26-.54,2,2,0,0,0,.46-1.34,1.55,1.55,0,0,1,.89.26.79.79,0,0,1,.37.7,1.83,1.83,0,0,1-1,1.56,3.88,3.88,0,0,1-2.08.62,3.07,3.07,0,0,1-2.48-.92,4.22,4.22,0,0,1-.76-2.74,4.62,4.62,0,0,1,1-3.05,3.38,3.38,0,0,1,2.74-1.24,3,3,0,0,1,1.88.54,1.9,1.9,0,0,1,.72,1.65,1.82,1.82,0,0,1-1,1.68,5,5,0,0,1-2.46.55A9.51,9.51,0,0,1,37.61,159.07Zm0-1.18a4.86,4.86,0,0,0,1,.09,3.7,3.7,0,0,0,1.81-.41,2.5,2.5,0,0,0,.09-.57.9.9,0,0,0-.37-.79,1.76,1.76,0,0,0-1-.27,1.83,1.83,0,0,0-1.17.42A4.66,4.66,0,0,0,37.62,157.89Zm8.14,4.41a2.72,2.72,0,0,1-1,.18,1.43,1.43,0,0,1-.86-.24.84.84,0,0,1-.31-.69c0-.3,0-.84.13-1.62a19.88,19.88,0,0,0,.14-2.27,11.67,11.67,0,0,0-.35-2.59,2.71,2.71,0,0,1,.95-.18A1.13,1.13,0,0,1,45.61,156a5.41,5.41,0,0,1-.09.81,8,8,0,0,0-.11.8,6.33,6.33,0,0,1,1.38-2.09,2.38,2.38,0,0,1,1.61-.76,1.09,1.09,0,0,1,.88.39,1.67,1.67,0,0,1,0,1.95.94.94,0,0,1-.75.36,2.25,2.25,0,0,1-.7-.09,1.35,1.35,0,0,0,0-.33c0-.41-.14-.62-.43-.62s-.86.45-1.25,1.34a10.79,10.79,0,0,0-.76,2.47A11.61,11.61,0,0,0,45.76,162.3Zm15.81-5.88-.15,3.3a8.66,8.66,0,0,0,.43,2.67,2.57,2.57,0,0,1-.94.18c-.87,0-1.31-.46-1.31-1.38a18.89,18.89,0,0,1,.18-2.4c.12-.92.18-1.49.18-1.7,0-.52-.23-.78-.7-.78s-1.06.47-1.67,1.41a6.18,6.18,0,0,0-1.05,2.34c0,.29.12,1,.3,2.24a2.8,2.8,0,0,1-1,.18,1,1,0,0,1-1.15-1.13c0-.36,0-1.06.16-2.11s.17-1.91.17-2.55a31.94,31.94,0,0,0-.36-5.28,2.8,2.8,0,0,1,1-.18,1.11,1.11,0,0,1,.84.34,1.21,1.21,0,0,1,.34.92c0,.39-.05,1.19-.16,2.41s-.15,2.17-.15,2.85a6.47,6.47,0,0,1,1.53-2,3,3,0,0,1,2-.93C61.06,154.8,61.57,155.34,61.57,156.42Zm3.16,2.65a3.57,3.57,0,0,0,.35,1.71,1.21,1.21,0,0,0,1.15.62,1.55,1.55,0,0,0,1.26-.54,2,2,0,0,0,.47-1.34,1.52,1.52,0,0,1,.88.26.8.8,0,0,1,.38.7,1.83,1.83,0,0,1-1,1.56,3.91,3.91,0,0,1-2.09.62,3,3,0,0,1-2.47-.92A4.22,4.22,0,0,1,62.9,159a4.62,4.62,0,0,1,1-3.05,3.4,3.4,0,0,1,2.75-1.24,3,3,0,0,1,1.87.54,1.9,1.9,0,0,1,.72,1.65,1.82,1.82,0,0,1-1,1.68,5,5,0,0,1-2.46.55A9.51,9.51,0,0,1,64.73,159.07Zm0-1.18a4.76,4.76,0,0,0,.94.09,3.74,3.74,0,0,0,1.82-.41,2.5,2.5,0,0,0,.09-.57.91.91,0,0,0-.38-.79,1.73,1.73,0,0,0-1-.27,1.83,1.83,0,0,0-1.17.42A4.66,4.66,0,0,0,64.75,157.89Zm12.78-2.48a15.22,15.22,0,0,0,0,6.89,3.49,3.49,0,0,1-1.11.18.9.9,0,0,1-.8-.33,1.8,1.8,0,0,1-.22-1,10.6,10.6,0,0,1,.19-1.75,6.69,6.69,0,0,1-2,2.88,1.78,1.78,0,0,1-.93.27,2.08,2.08,0,0,1-1.77-.84,3.48,3.48,0,0,1-.63-2.12,5.49,5.49,0,0,1,1.06-3.36A3.27,3.27,0,0,1,74,154.8,10.81,10.81,0,0,1,77.53,155.41Zm-2,.9a4.81,4.81,0,0,0-1.35-.24,2.46,2.46,0,0,0-1.68.5,6.76,6.76,0,0,0-.51,2.56,4.9,4.9,0,0,0,.21,1.4c.15.47.37.7.67.7s.8-.51,1.35-1.54A15.52,15.52,0,0,0,75.57,156.31Zm3.45-4.9a2.8,2.8,0,0,1,1-.18,1.11,1.11,0,0,1,.84.34,1.21,1.21,0,0,1,.34.92c0,.38,0,1.15-.16,2.31s-.15,2-.15,2.71a32.84,32.84,0,0,0,.34,4.79,2.88,2.88,0,0,1-1,.18,1,1,0,0,1-1.15-1.13c0-.36,0-1.06.16-2.11s.17-1.91.17-2.55A31.94,31.94,0,0,0,79,151.41Zm4.45,1.27a2.14,2.14,0,0,1,1-.24,1.06,1.06,0,0,1,.8.32,1.26,1.26,0,0,1,.31.93c0,.41,0,.87-.07,1.39a7.19,7.19,0,0,0,2.14-.31,1.33,1.33,0,0,1,.18.7.77.77,0,0,1-.36.65,1.21,1.21,0,0,1-.7.24,4.17,4.17,0,0,1-.81-.09l-.59-.11q0,.14-.09.54c0,.27-.07.51-.1.71a12.31,12.31,0,0,0-.12,1.77c0,1.37.44,2,1.33,2a2.47,2.47,0,0,0,1.14-.34,1.26,1.26,0,0,1,.2.73.79.79,0,0,1-.5.71,2.54,2.54,0,0,1-1.15.24q-2.64,0-2.64-3c0-.29,0-.82.12-1.58a16.13,16.13,0,0,0,.13-1.84,3.12,3.12,0,0,0-1.15.25,1.07,1.07,0,0,1-.18-.61.75.75,0,0,1,.25-.59.88.88,0,0,1,.63-.24l.5,0a2.92,2.92,0,0,0,0-.32A7,7,0,0,0,83.47,152.68Zm12.26,3.74-.15,3.3a8.66,8.66,0,0,0,.43,2.67,2.57,2.57,0,0,1-.94.18c-.87,0-1.31-.46-1.31-1.38a18.89,18.89,0,0,1,.18-2.4c.12-.92.18-1.49.18-1.7,0-.52-.23-.78-.7-.78s-1.06.47-1.67,1.41a6.18,6.18,0,0,0-1,2.34c0,.29.12,1,.3,2.24a2.8,2.8,0,0,1-1,.18,1,1,0,0,1-1.15-1.13c0-.36,0-1.06.16-2.11s.17-1.91.17-2.55a31.94,31.94,0,0,0-.36-5.28,2.8,2.8,0,0,1,1-.18,1.11,1.11,0,0,1,.84.34,1.21,1.21,0,0,1,.34.92c0,.39,0,1.19-.16,2.41s-.15,2.17-.15,2.85a6.47,6.47,0,0,1,1.53-2,3,3,0,0,1,2-.93C95.22,154.8,95.73,155.34,95.73,156.42Zm6.63-3.74a2.18,2.18,0,0,1,1-.24,1,1,0,0,1,.79.32,1.26,1.26,0,0,1,.32.93c0,.41,0,.87-.08,1.39a7.26,7.26,0,0,0,2.15-.31,1.33,1.33,0,0,1,.18.7.77.77,0,0,1-.36.65,1.24,1.24,0,0,1-.71.24,4.17,4.17,0,0,1-.81-.09l-.58-.11q0,.14-.09.54c0,.27-.08.51-.11.71a12.31,12.31,0,0,0-.12,1.77c0,1.37.45,2,1.34,2a2.47,2.47,0,0,0,1.14-.34,1.26,1.26,0,0,1,.19.73.78.78,0,0,1-.49.71,2.58,2.58,0,0,1-1.16.24q-2.64,0-2.64-3c0-.29,0-.82.12-1.58a16.53,16.53,0,0,0,.14-1.84,3.18,3.18,0,0,0-1.16.25,1.07,1.07,0,0,1-.18-.61.76.76,0,0,1,.26-.59.88.88,0,0,1,.63-.24,4.42,4.42,0,0,1,.49,0,2.58,2.58,0,0,0,0-.32A6.94,6.94,0,0,0,102.36,152.68Zm12.27,3.74-.15,3.3a8.66,8.66,0,0,0,.43,2.67,2.57,2.57,0,0,1-.94.18c-.87,0-1.31-.46-1.31-1.38a18.89,18.89,0,0,1,.18-2.4c.12-.92.18-1.49.18-1.7,0-.52-.23-.78-.7-.78s-1.06.47-1.67,1.41a6.18,6.18,0,0,0-1.05,2.34c0,.29.12,1,.3,2.24a2.8,2.8,0,0,1-1,.18,1,1,0,0,1-1.15-1.13c0-.36,0-1.06.16-2.11s.17-1.91.17-2.55a31.94,31.94,0,0,0-.36-5.28,2.8,2.8,0,0,1,1-.18,1.11,1.11,0,0,1,.84.34,1.21,1.21,0,0,1,.34.92c0,.39-.05,1.19-.16,2.41s-.15,2.17-.15,2.85a6.47,6.47,0,0,1,1.53-2,3,3,0,0,1,2-.93C114.12,154.8,114.63,155.34,114.63,156.42Zm4,5.88a2.72,2.72,0,0,1-1,.18,1.43,1.43,0,0,1-.86-.24.84.84,0,0,1-.31-.69c0-.3,0-.84.13-1.62a19.88,19.88,0,0,0,.14-2.27,11.67,11.67,0,0,0-.35-2.59,2.71,2.71,0,0,1,1-.18A1.13,1.13,0,0,1,118.5,156a5.41,5.41,0,0,1-.09.81,8,8,0,0,0-.11.8,6.33,6.33,0,0,1,1.38-2.09,2.38,2.38,0,0,1,1.61-.76,1.09,1.09,0,0,1,.88.39,1.67,1.67,0,0,1,0,1.95.94.94,0,0,1-.75.36,2.25,2.25,0,0,1-.7-.09,1.35,1.35,0,0,0,0-.33c0-.41-.14-.62-.43-.62s-.86.45-1.25,1.34a10.79,10.79,0,0,0-.76,2.47A11.61,11.61,0,0,0,118.65,162.3Zm7.38.36a3,3,0,0,1-2.43-1,4.21,4.21,0,0,1-.78-2.7,4.65,4.65,0,0,1,1-3,3.27,3.27,0,0,1,2.66-1.27q3.33,0,3.33,3.75a4.35,4.35,0,0,1-1.08,3A3.5,3.5,0,0,1,126,162.66Zm-1.08-6.3a5.84,5.84,0,0,0-.27,1.74,11.59,11.59,0,0,0,.06,1.35,4.75,4.75,0,0,0,.22,1,1.32,1.32,0,0,0,1.35,1,1.43,1.43,0,0,0,1.34-.54,3.26,3.26,0,0,0,.33-1.66c0-2.13-.51-3.2-1.52-3.2A2.94,2.94,0,0,0,125,156.36Zm6.23,4.59.15-3.12a9,9,0,0,0-.42-2.76,2.66,2.66,0,0,1,1-.18c.8,0,1.2.44,1.2,1.33a19.2,19.2,0,0,1-.17,2.12,17.83,17.83,0,0,0-.16,2c0,.5.22.75.67.75.27,0,.59-.22.95-.67a7.38,7.38,0,0,0,.94-1.53,5.14,5.14,0,0,0,.48-1.4,16.25,16.25,0,0,0-.25-2.38,2.73,2.73,0,0,1,1-.18,1.16,1.16,0,0,1,.84.31,1,1,0,0,1,.35.78,14.7,14.7,0,0,1-.14,1.55,18.21,18.21,0,0,0-.13,2.26,12.72,12.72,0,0,0,.27,2.51,3.61,3.61,0,0,1-1.05.18q-.93,0-.93-1.23a12.89,12.89,0,0,1,.12-1.5,6.31,6.31,0,0,1-1.47,2.05,2.62,2.62,0,0,1-1.74.77C131.69,162.57,131.18,162,131.18,161Zm13.21-4.64a5.4,5.4,0,0,0-1.57-.24,2.59,2.59,0,0,0-1.47.47,5,5,0,0,0-.54,2.29,4.94,4.94,0,0,0,.19,1.38c.13.44.35.66.65.66s.79-.48,1.36-1.45A15.25,15.25,0,0,0,144.39,156.31Zm-2.25,8.63a1.83,1.83,0,0,0,1.5-.66,2.6,2.6,0,0,0,.54-1.7c0-.34,0-.83-.07-1.48S144,160,144,159.72a6,6,0,0,1-1.86,2.28,1.81,1.81,0,0,1-.85.21,2,2,0,0,1-1.74-.89,3.69,3.69,0,0,1-.62-2.16,4.62,4.62,0,0,1,1.08-3,3.44,3.44,0,0,1,2.76-1.32,10.42,10.42,0,0,1,3.39.58,11.64,11.64,0,0,0-.45,3.15c0,.49,0,1.1.11,1.83s.1,1.26.1,1.61a4.17,4.17,0,0,1-1.17,3,4,4,0,0,1-3,1.22,3.87,3.87,0,0,1-1.86-.42,1.35,1.35,0,0,1-.76-1.28,1.18,1.18,0,0,1,.4-.91,1.37,1.37,0,0,1,1-.38l.3,0a1.56,1.56,0,0,0,0,.35,1.24,1.24,0,0,0,.4.93A1.34,1.34,0,0,0,142.14,164.94Zm12.36-8.52-.15,3.3a8.66,8.66,0,0,0,.43,2.67,2.57,2.57,0,0,1-.94.18c-.87,0-1.31-.46-1.31-1.38a18.89,18.89,0,0,1,.18-2.4c.12-.92.18-1.49.18-1.7,0-.52-.23-.78-.7-.78s-1.06.47-1.67,1.41a6.18,6.18,0,0,0-1.05,2.34c0,.29.12,1,.3,2.24a2.8,2.8,0,0,1-1,.18,1,1,0,0,1-1.15-1.13c0-.36.05-1.06.16-2.11s.17-1.91.17-2.55a31.94,31.94,0,0,0-.36-5.28,2.8,2.8,0,0,1,1-.18,1.11,1.11,0,0,1,.84.34,1.21,1.21,0,0,1,.34.92c0,.39-.05,1.19-.16,2.41s-.15,2.17-.15,2.85a6.47,6.47,0,0,1,1.53-2,3,3,0,0,1,2-.93C154,154.8,154.5,155.34,154.5,156.42Zm6.05,5.53c.23-2,.34-3.36.34-4.11q0-3.15-.25-6.43a2.56,2.56,0,0,1,1-.18,1.21,1.21,0,0,1,.87.34,1.15,1.15,0,0,1,.36.87q0,.9-.18,2.88c-.12,1.31-.2,2.19-.23,2.63a6.35,6.35,0,0,1,2.45-2.88,2.53,2.53,0,0,1,1.15-.27,1.4,1.4,0,0,1,1.29.88,4.6,4.6,0,0,1,.47,2.16,5.16,5.16,0,0,1-1.11,3.39,3.57,3.57,0,0,1-2.88,1.34A8.39,8.39,0,0,1,160.55,162Zm1.8-.94a4,4,0,0,0,1.42.22,3,3,0,0,0,1.43-.31,5.37,5.37,0,0,0,.73-2.75,5.56,5.56,0,0,0-.16-1.36c-.11-.45-.29-.68-.53-.68s-.85.51-1.45,1.53A15,15,0,0,0,162.35,161Zm8-1.94a3.57,3.57,0,0,0,.35,1.71,1.21,1.21,0,0,0,1.15.62,1.55,1.55,0,0,0,1.26-.54,2,2,0,0,0,.47-1.34,1.52,1.52,0,0,1,.88.26.8.8,0,0,1,.38.7,1.83,1.83,0,0,1-1,1.56,3.91,3.91,0,0,1-2.09.62,3,3,0,0,1-2.47-.92,4.22,4.22,0,0,1-.77-2.74,4.62,4.62,0,0,1,1-3.05,3.4,3.4,0,0,1,2.75-1.24,3,3,0,0,1,1.87.54,1.9,1.9,0,0,1,.72,1.65,1.82,1.82,0,0,1-1,1.68,5,5,0,0,1-2.46.55A9.51,9.51,0,0,1,170.36,159.07Zm0-1.18a4.76,4.76,0,0,0,.94.09,3.74,3.74,0,0,0,1.82-.41,2.5,2.5,0,0,0,.09-.57.91.91,0,0,0-.38-.79,1.73,1.73,0,0,0-1-.27,1.83,1.83,0,0,0-1.17.42A4.66,4.66,0,0,0,170.38,157.89Zm6.51-5.21a2.18,2.18,0,0,1,1-.24,1,1,0,0,1,.79.32,1.26,1.26,0,0,1,.32.93c0,.41,0,.87-.08,1.39a7.26,7.26,0,0,0,2.15-.31,1.33,1.33,0,0,1,.18.7.77.77,0,0,1-.36.65,1.24,1.24,0,0,1-.71.24,4.17,4.17,0,0,1-.81-.09l-.58-.11q0,.14-.09.54c0,.27-.08.51-.11.71a12.31,12.31,0,0,0-.12,1.77c0,1.37.45,2,1.34,2a2.47,2.47,0,0,0,1.14-.34,1.26,1.26,0,0,1,.19.73.78.78,0,0,1-.49.71,2.58,2.58,0,0,1-1.16.24q-2.64,0-2.64-3c0-.29,0-.82.12-1.58a16.53,16.53,0,0,0,.14-1.84,3.18,3.18,0,0,0-1.16.25,1.07,1.07,0,0,1-.18-.61.76.76,0,0,1,.26-.59.88.88,0,0,1,.63-.24,4.42,4.42,0,0,1,.49,0,2.58,2.58,0,0,0,0-.32A6.94,6.94,0,0,0,176.89,152.68Zm5.92,0a2.18,2.18,0,0,1,1-.24,1,1,0,0,1,.79.32,1.26,1.26,0,0,1,.32.93c0,.41,0,.87-.08,1.39a7.26,7.26,0,0,0,2.15-.31,1.33,1.33,0,0,1,.18.7.77.77,0,0,1-.36.65,1.24,1.24,0,0,1-.71.24,4.17,4.17,0,0,1-.81-.09l-.58-.11q0,.14-.09.54c0,.27-.08.51-.11.71a12.31,12.31,0,0,0-.12,1.77c0,1.37.45,2,1.34,2a2.47,2.47,0,0,0,1.14-.34,1.26,1.26,0,0,1,.19.73.78.78,0,0,1-.49.71,2.58,2.58,0,0,1-1.16.24q-2.64,0-2.64-3c0-.29,0-.82.12-1.58a16.53,16.53,0,0,0,.14-1.84,3.18,3.18,0,0,0-1.16.25,1.07,1.07,0,0,1-.18-.61.76.76,0,0,1,.26-.59.88.88,0,0,1,.63-.24,4.42,4.42,0,0,1,.49,0,2.58,2.58,0,0,0,0-.32A6.94,6.94,0,0,0,182.81,152.68Zm6.69,6.39a3.58,3.58,0,0,0,.34,1.71,1.23,1.23,0,0,0,1.16.62,1.55,1.55,0,0,0,1.26-.54,2,2,0,0,0,.46-1.34,1.55,1.55,0,0,1,.89.26.79.79,0,0,1,.37.7,1.83,1.83,0,0,1-1,1.56,3.88,3.88,0,0,1-2.08.62,3.07,3.07,0,0,1-2.48-.92,4.22,4.22,0,0,1-.76-2.74,4.62,4.62,0,0,1,1-3.05,3.38,3.38,0,0,1,2.74-1.24,3,3,0,0,1,1.88.54,1.9,1.9,0,0,1,.72,1.65,1.82,1.82,0,0,1-1,1.68,5,5,0,0,1-2.46.55A9.51,9.51,0,0,1,189.5,159.07Zm0-1.18a4.86,4.86,0,0,0,1,.09,3.7,3.7,0,0,0,1.81-.41,2.5,2.5,0,0,0,.09-.57.9.9,0,0,0-.37-.79,1.76,1.76,0,0,0-1-.27,1.83,1.83,0,0,0-1.17.42A4.66,4.66,0,0,0,189.51,157.89Zm8.14,4.41a2.72,2.72,0,0,1-1,.18,1.43,1.43,0,0,1-.86-.24.84.84,0,0,1-.31-.69c0-.3,0-.84.13-1.62a19.88,19.88,0,0,0,.14-2.27,11.67,11.67,0,0,0-.35-2.59,2.71,2.71,0,0,1,1-.18A1.13,1.13,0,0,1,197.5,156a5.41,5.41,0,0,1-.09.81,8,8,0,0,0-.11.8,6.33,6.33,0,0,1,1.38-2.09,2.38,2.38,0,0,1,1.61-.76,1.09,1.09,0,0,1,.88.39,1.67,1.67,0,0,1,0,1.95.94.94,0,0,1-.75.36,2.25,2.25,0,0,1-.7-.09,1.35,1.35,0,0,0,0-.33c0-.41-.14-.62-.43-.62-.44,0-.86.45-1.25,1.34a10.79,10.79,0,0,0-.76,2.47A11.61,11.61,0,0,0,197.65,162.3Zm10.23-3.23a3.58,3.58,0,0,0,.34,1.71,1.23,1.23,0,0,0,1.16.62,1.55,1.55,0,0,0,1.26-.54,2,2,0,0,0,.46-1.34,1.55,1.55,0,0,1,.89.26.79.79,0,0,1,.37.7,1.83,1.83,0,0,1-1,1.56,3.88,3.88,0,0,1-2.08.62,3.07,3.07,0,0,1-2.48-.92,4.22,4.22,0,0,1-.76-2.74,4.62,4.62,0,0,1,1-3.05,3.38,3.38,0,0,1,2.74-1.24,3,3,0,0,1,1.88.54,1.9,1.9,0,0,1,.72,1.65,1.82,1.82,0,0,1-1,1.68,5,5,0,0,1-2.46.55A9.51,9.51,0,0,1,207.88,159.07Zm0-1.18a4.86,4.86,0,0,0,1,.09,3.7,3.7,0,0,0,1.81-.41,2.5,2.5,0,0,0,.09-.57.9.9,0,0,0-.37-.79,1.76,1.76,0,0,0-1-.27,1.83,1.83,0,0,0-1.17.42A4.66,4.66,0,0,0,207.89,157.89Zm12.79-2.48a15,15,0,0,0,0,6.89,3.49,3.49,0,0,1-1.11.18.88.88,0,0,1-.79-.33,1.8,1.8,0,0,1-.23-1,10.82,10.82,0,0,1,.2-1.75,6.69,6.69,0,0,1-2.06,2.88,1.78,1.78,0,0,1-.93.27,2.08,2.08,0,0,1-1.77-.84,3.48,3.48,0,0,1-.63-2.12,5.5,5.5,0,0,1,1.07-3.36,3.27,3.27,0,0,1,2.76-1.45A10.81,10.81,0,0,1,220.68,155.41Zm-2,.9a4.81,4.81,0,0,0-1.35-.24,2.46,2.46,0,0,0-1.68.5,6.76,6.76,0,0,0-.51,2.56,4.9,4.9,0,0,0,.21,1.4c.15.47.38.7.68.7s.8-.51,1.35-1.54A15.5,15.5,0,0,0,218.71,156.31Zm3.87-3.63a2.18,2.18,0,0,1,1-.24,1,1,0,0,1,.79.32,1.26,1.26,0,0,1,.32.93c0,.41,0,.87-.08,1.39a7.26,7.26,0,0,0,2.15-.31,1.33,1.33,0,0,1,.18.7.77.77,0,0,1-.36.65,1.24,1.24,0,0,1-.71.24,4.17,4.17,0,0,1-.81-.09l-.58-.11q0,.14-.09.54c0,.27-.08.51-.11.71a12.31,12.31,0,0,0-.12,1.77c0,1.37.45,2,1.34,2a2.47,2.47,0,0,0,1.14-.34,1.26,1.26,0,0,1,.19.73.78.78,0,0,1-.49.71,2.58,2.58,0,0,1-1.16.24q-2.64,0-2.64-3c0-.29,0-.82.12-1.58a16.53,16.53,0,0,0,.14-1.84,3.18,3.18,0,0,0-1.16.25,1.07,1.07,0,0,1-.18-.61.76.76,0,0,1,.26-.59.88.88,0,0,1,.63-.24,4.42,4.42,0,0,1,.49,0,2.58,2.58,0,0,0,0-.32A6.94,6.94,0,0,0,222.58,152.68ZM228,155a3.52,3.52,0,0,1,1-.13,1.24,1.24,0,0,1,.84.3,1,1,0,0,1,.34.78,13.41,13.41,0,0,1-.16,1.63,14.92,14.92,0,0,0-.15,1.8,11.71,11.71,0,0,0,.31,2.9,2.73,2.73,0,0,1-1,.18,1.39,1.39,0,0,1-.86-.24.87.87,0,0,1-.31-.72,10.79,10.79,0,0,1,.18-1.56,11.31,11.31,0,0,0,.18-1.79A12.79,12.79,0,0,0,228,155Zm.19-3.39a2.5,2.5,0,0,1,1-.24,1,1,0,0,1,.75.27,1.05,1.05,0,0,1,.25.77,1.31,1.31,0,0,1-.34.9,1.08,1.08,0,0,1-.87.39c-.74,0-1.11-.39-1.11-1.16A1.62,1.62,0,0,1,228.17,151.63Zm10.56,4.79-.15,3.3a8.66,8.66,0,0,0,.42,2.67,2.42,2.42,0,0,1-1,.18c-.85,0-1.28-.48-1.28-1.43,0-.43.06-1.15.17-2.16s.16-1.66.16-1.92c0-.5-.22-.75-.67-.75a1.69,1.69,0,0,0-1.13.72,7.73,7.73,0,0,0-1.06,1.59,4.82,4.82,0,0,0-.51,1.44,13.3,13.3,0,0,0,.3,2.24,2.87,2.87,0,0,1-1,.18,1.39,1.39,0,0,1-.84-.24.84.84,0,0,1-.31-.69A15.48,15.48,0,0,1,232,160a19.65,19.65,0,0,0,.14-2.28,11.61,11.61,0,0,0-.35-2.61,2.88,2.88,0,0,1,1-.18,1.2,1.2,0,0,1,.87.31,1,1,0,0,1,.35.78,14.37,14.37,0,0,1-.12,1.49,6.5,6.5,0,0,1,1.48-1.86,2.78,2.78,0,0,1,1.83-.81C238.22,154.8,238.73,155.34,238.73,156.42Zm6.9-.11a5.46,5.46,0,0,0-1.58-.24,2.59,2.59,0,0,0-1.47.47,5,5,0,0,0-.54,2.29,5,5,0,0,0,.2,1.38c.13.44.34.66.64.66s.8-.48,1.37-1.45A15.25,15.25,0,0,0,245.63,156.31Zm-2.25,8.63a1.83,1.83,0,0,0,1.5-.66,2.6,2.6,0,0,0,.54-1.7c0-.34,0-.83-.08-1.48s-.06-1.11-.07-1.38a6,6,0,0,1-1.86,2.28,1.85,1.85,0,0,1-.86.21,2,2,0,0,1-1.74-.89,3.69,3.69,0,0,1-.61-2.16,4.62,4.62,0,0,1,1.08-3A3.44,3.44,0,0,1,244,154.8a10.42,10.42,0,0,1,3.39.58,11.64,11.64,0,0,0-.45,3.15c0,.49,0,1.1.1,1.83s.11,1.26.11,1.61a4.17,4.17,0,0,1-1.17,3,4,4,0,0,1-3,1.22,3.87,3.87,0,0,1-1.86-.42,1.36,1.36,0,0,1-.77-1.28,1.19,1.19,0,0,1,.41-.91,1.37,1.37,0,0,1,1-.38l.3,0a1.63,1.63,0,0,0-.05.35,1.25,1.25,0,0,0,.41.93A1.34,1.34,0,0,0,243.38,164.94Zm5.39-9.33a2.79,2.79,0,0,0,.89-.63,2.27,2.27,0,0,0,.48-.9.85.85,0,0,1-.66-.89,3.34,3.34,0,0,1,.27-1.12,2.19,2.19,0,0,1,1-.24,1,1,0,0,1,1.09,1.09,3.22,3.22,0,0,1-.73,2,2.11,2.11,0,0,1-1.67.95A1,1,0,0,1,248.77,155.61Zm3,0a2.79,2.79,0,0,0,.89-.63,2.27,2.27,0,0,0,.48-.9.85.85,0,0,1-.66-.89,3.34,3.34,0,0,1,.27-1.12,2.19,2.19,0,0,1,1-.24,1,1,0,0,1,1.09,1.09,3.22,3.22,0,0,1-.73,2,2.11,2.11,0,0,1-1.67.95A1,1,0,0,1,251.77,155.61Z"/></g></g></svg>