<svg xmlns="http://www.w3.org/2000/svg" viewBox="0 0 20.91 20.5"><defs><style>.cls-1{fill:none;stroke:#000;stroke-linecap:round;stroke-linejoin:round;stroke-width:2px;}</style></defs><g id="Layer_2" data-name="Layer 2"><g id="Layer_1-2" data-name="Layer 1"><path class="cls-1" d="M11.51,14.36H10.45V10.25h-1m1-4.11h0m9.44,4.11a9,9,0,0,1-.72,3.54,9.32,9.32,0,0,1-2.05,3,9.55,9.55,0,0,1-3.07,2,9.68,9.68,0,0,1-7.23,0,9.55,9.55,0,0,1-3.07-2,9.16,9.16,0,0,1-2-3A9,9,0,0,1,1,10.25,9.16,9.16,0,0,1,3.77,3.71a9.6,9.6,0,0,1,13.37,0A9.16,9.16,0,0,1,19.91,10.25Z"/></g></g></svg>