<svg xmlns="http://www.w3.org/2000/svg" viewBox="0 0 25.79 29.03"><defs><style>.cls-1{fill:#32936F;}</style></defs><g id="Layer_2" data-name="Layer 2"><g id="Layer_1-2" data-name="Layer 1"><path id="Path_5" data-name="Path 5" class="cls-1" d="M20.83,11.64h3.84c.7,0,1.11.47,1.11,1.26,0,1.45,0,2.9,0,4.35a9.81,9.81,0,0,1-6.93,9.32c-.23.06-.31.18-.29.44s0,.58,0,.87a1.07,1.07,0,0,1-1,1.15H8.27a1.07,1.07,0,0,1-1-1.1v-.09a8.42,8.42,0,0,1,0-.87A.33.33,0,0,0,7,26.58H7a9.5,9.5,0,0,1-3.76-2.15A9.6,9.6,0,0,1,0,17c0-1.35,0-2.7,0-4.06,0-.89.4-1.34,1.18-1.34H11.55a.5.5,0,0,0,.42-.2c1.43-1.62,2.87-3.26,4.32-4.88a1,1,0,0,0,.2-.7,4.52,4.52,0,0,1,3.09-4.12c2.78-.86,5.57,1.47,5.63,4.7.05,2.73-1.62,4.78-4,5C21,11.43,20.9,11.44,20.83,11.64ZM12.92,14H2.35c-.25,0-.3.07-.3.34,0,.91,0,1.81,0,2.72a7.25,7.25,0,0,0,1.83,5,7.88,7.88,0,0,0,4.49,2.55,1.1,1.1,0,0,1,.9,1.23,4.86,4.86,0,0,1,0,.54c0,.3,0,.41.34.41h6.06c.26,0,.6.14.77-.05s0-.58,0-.87a1.14,1.14,0,0,1,1-1.25,7.9,7.9,0,0,0,3.61-1.71,7.24,7.24,0,0,0,2.63-5c.1-1.17,0-2.34.05-3.52,0-.3-.06-.37-.33-.37Zm1.81-2.43.07.11h2.89c.16,0,.23-.1.32-.2l1.79-2a1.08,1.08,0,0,1,.93-.38A2.17,2.17,0,0,0,23,7.76a2.8,2.8,0,0,0-.12-2.9,2.22,2.22,0,0,0-2.71-1,2.66,2.66,0,0,0-1.61,2.65,1.72,1.72,0,0,1-.46,1.32C17.05,9,16,10.15,15,11.3A2,2,0,0,1,14.73,11.53Z"/><path id="Path_6" data-name="Path 6" class="cls-1" d="M11.85,8.48v.84a1.08,1.08,0,0,1-1,1.16h0A8.08,8.08,0,0,1,7,9.88,8.2,8.2,0,0,1,2.57,2.35V1.15A1.11,1.11,0,0,1,3.46.05,7.36,7.36,0,0,1,7.64.78a8.12,8.12,0,0,1,4.2,7.48A.81.81,0,0,1,11.85,8.48Zm-7-6.11c-.19-.06-.24.06-.21.27s0,.29.05.43a5.47,5.47,0,0,0,4.5,5c.62.08.62.08.55-.64A5.45,5.45,0,0,0,4.85,2.37Z"/></g></g></svg>