<svg xmlns="http://www.w3.org/2000/svg" viewBox="0 0 23 29.75"><defs><style>.cls-1{fill:none;stroke:#000;stroke-linecap:round;stroke-linejoin:round;stroke-width:2px;}</style></defs><g id="Layer_2" data-name="Layer 2"><g id="Layer_1-2" data-name="Layer 1"><path class="cls-1" d="M7,4.08H4A2.94,2.94,0,0,0,1.88,5,3.12,3.12,0,0,0,1,7.17v18.5a3.16,3.16,0,0,0,.88,2.18,2.93,2.93,0,0,0,2.12.9H19a2.93,2.93,0,0,0,2.12-.9A3.16,3.16,0,0,0,22,25.67V7.17A3.12,3.12,0,0,0,21.12,5,2.94,2.94,0,0,0,19,4.08H16m-9,0a3.12,3.12,0,0,0,.88,2.18A2.94,2.94,0,0,0,10,7.17h3a2.94,2.94,0,0,0,2.12-.91A3.12,3.12,0,0,0,16,4.08m-9,0A3.16,3.16,0,0,1,7.88,1.9,2.93,2.93,0,0,1,10,1h3a2.93,2.93,0,0,1,2.12.9A3.16,3.16,0,0,1,16,4.08m-4.5,10.8H16M11.5,21H16M7,14.88H7M7,21H7"/></g></g></svg>