<svg xmlns="http://www.w3.org/2000/svg" viewBox="0 0 415.53 388.15"><defs><style>.cls-1{fill:#32936f;}.cls-2{fill:#d8dbe0;}</style></defs><g id="Layer_2" data-name="Layer 2"><g id="Layer_1-2" data-name="Layer 1"><g id="btuJdl.tif"><g id="Group_5" data-name="Group 5"><g id="Group_4" data-name="Group 4"><path id="Path_11" data-name="Path 11" class="cls-1" d="M176.87,213c8.18-7.85,16.31-15.74,24.54-23.53,5.81-5.5,7.07-5.43,12.74,0q12.42,11.92,24.85,23.81c.35-.28.77-.45.78-.65.57-8.68.56-8.67,9.28-8.65,6.5,0,13,.1,19.5,0,2.63-.06,3.49.85,3.42,3.45-.12,4.5.07,9,.13,13.49-.05,6.16.28,12.35-.27,18.46-.45,5,1.85,7.95,5.15,11.06,10.88,10.28,21.56,20.78,32.3,31.22,1.91,1.86,2.83,4,1.73,6.75s-3.26,3.61-5.94,3.63c-4.49,0-9,.15-13.48,0-2.83-.11-3.77.89-3.71,3.71.19,9.48.18,19,.24,28.45-.05,19.49-.23,39-.05,58.46,0,4.29-.9,5.68-5.45,5.58-15.15-.32-30.32-.29-45.47-.05-4.06.06-5.39-.9-5.34-5.14.24-18,0-36,.2-54,0-3.74-.7-5.16-4.85-5.06-12.65.3-25.32.27-38,0-4-.09-5.38.81-5.32,5.1.24,18,0,36,.15,54,0,3.7-.57,5.18-4.79,5.1-15.66-.29-31.32-.22-47,0-3.56.05-4.45-1.06-4.43-4.5.1-19.82,0-39.64-.08-59.46.06-9.65.08-19.3.22-29,0-2.35-.81-3.26-3.19-3.2-4.15.12-8.32-.07-12.47.07-3.35.11-6.5-.18-8-3.67s.41-5.93,2.86-8.28Q142.06,246.56,176.87,213Z"/><path id="Path_12" data-name="Path 12" class="cls-2" d="M288.12,324.1c-.06-9.48,0-19-.24-28.45-.05-2.82.89-3.82,3.72-3.71,4.48.18,9,.07,13.48,0,2.67,0,4.83-.89,5.93-3.63s.19-4.89-1.73-6.75c-10.73-10.44-21.41-20.94-32.3-31.22-3.3-3.11-5.59-6.08-5.15-11.06.55-6.11.22-12.3.27-18.46,6.1-5.62,12.22-11.23,18.3-16.88,5.6-5.21,11.2-10.41,16.69-15.72,3.23-3.11,6.09-3.13,9.55-.17,10.52,9,19.81,19.24,29.75,28.82,1.4,1.34,2.53,3.16,5.55,3.35,0-4.1.13-8.16-.05-12.2-.13-2.94.77-4.19,3.93-4.12q12,.27,24,0c3.34-.08,4.28,1.14,4.24,4.34-.13,13.49,0,27-.11,40.47a8.06,8.06,0,0,0,2.73,6.57c8.56,7.88,16.19,16.72,25.05,24.33,2.26,1.93,5,4.58,3.33,8.63-1.54,3.84-4.68,3.53-7.85,3.75-4.92.34-11.25-2.19-14.37,1.13-2.85,3-.82,9.22-.84,14-.07,25-.15,50,.1,74.94.05,4.9-1.5,6.11-6.19,6-15-.28-30-.23-45,0-3.91.06-5.12-1.06-5.07-5.05.2-17.81,0-35.63.18-53.45.05-4.21-.79-5.81-5.44-5.69C316.44,324.25,302.28,324.07,288.12,324.1Z"/><path id="Path_13" data-name="Path 13" class="cls-2" d="M176.87,213q-34.83,33.57-69.7,67.13c-2.45,2.34-4.35,4.8-2.86,8.27s4.64,3.78,8,3.67c4.15-.14,8.32.06,12.48-.06,2.37-.07,3.21.84,3.18,3.2-.14,9.65-.16,19.3-.22,28.95-14.49,0-29,0-43.47-.19-3.68-.06-4.41,1.35-4.39,4.67.12,18.16-.06,36.31.14,54.47,0,4-1.2,5.06-5.1,5-15.15-.2-30.31-.24-45.47,0-4.29.07-5.67-.89-5.63-5.45.22-28.32,0-56.64.22-84.95,0-4.68-1.33-6.17-5.87-5.74-3.63.35-7.32.05-11,0-2.82,0-5.2-.71-6.55-3.57s-.32-5.26,1.64-7.24c14.83-15,30.2-29.52,45.7-43.87.61-.57,1.22-1.14,1.81-1.72L92.71,193.8a88,88,0,0,1,7.5-6.54c3.2-2.47,5.89-1.47,8.77,1.14,10.61,9.62,20.66,19.79,30.8,29.88.92.92,1.82,2.59,3.11,2.2,1.86-.56,1-2.57,1-3.94.24-12.55.22-12.54,12.88-12.55,4.66,0,9.34.25,14-.09,4.24-.31,5.77,1.26,5.21,5.36C175.8,210.51,175.6,212,176.87,213Z"/><path id="Path_14" data-name="Path 14" class="cls-1" d="M139.41,73.8c.27-43.14,32.75-74.6,71-73.78,33.17.71,62.51,28.06,65.85,61.07,2.3,22.7-4.65,41.93-20.69,58q-20.47,20.51-41,41c-4.5,4.49-8.9,4.61-13.19,0-14-15.18-29.09-29.24-43.26-44.22C145.68,102.67,139.48,86.87,139.41,73.8Zm62.05,30.53a26.91,26.91,0,0,0,2.33-1.94Q224,81.66,244.25,60.94c1.55-1.58,1.51-2.54-.06-4-4-3.75-8.06-7.5-11.76-11.55-2.49-2.73-4-2.2-6.28.25-7.17,7.66-14.63,15-21.8,22.7-2.25,2.39-3.67,2.4-5.89,0-3.93-4.29-8.27-8.21-12.28-12.43-1.93-2-3.38-2.13-5.34-.05-3.78,4-7.68,7.86-11.65,11.66-1.78,1.7-2.12,2.9-.15,4.83,10.21,10,20.3,20.21,30.43,30.33C200.05,103.23,200.73,103.71,201.46,104.33Z"/></g></g></g></g></g></svg>