<svg xmlns="http://www.w3.org/2000/svg" viewBox="0 0 367.17 407.35"><defs><style>.cls-1{fill:#32936f;}.cls-2{fill:#d8dbe0;}</style></defs><g id="Layer_2" data-name="Layer 2"><g id="Layer_1-2" data-name="Layer 1"><g id="Group_3" data-name="Group 3"><path id="Path_2" data-name="Path 2" class="cls-1" d="M367.05,184v39.69q-56.82.06-113.63.08a13.87,13.87,0,0,0-7.91,2.27q-18,11.55-36.26,22.76c-2.7,1.66-2.82,2.73-1,5.29Q230,285,251.42,316.18c1.87,2.74,3.9,3.4,7,3.39q54.32-.07,108.64.07v39.69c-32.93,0-65.85.14-98.77,0-3.93,0-5,1-5,5,.2,14.3,0,28.6,0,42.9H223.58c0-19.1-.1-38.19-.08-57.28a11.45,11.45,0,0,0-1.94-7q-23.53-33.63-46.89-67.4c-1.75-2.54-3.07-3.22-5.92-1.4Q142.32,291,115.67,307.53c-3.11,1.92-4,4.09-4,7.62.11,30.71,0,61.43,0,92.14H71.92c0-30.18-.14-60.36,0-90.54,0-4.06-1-5.32-5.17-5.29-22.22.18-44.44,0-66.66,0V271.75l63.34-.11c8.38,0,8.4,0,8.4-8.42q.06-71.57.11-143.14h39.69V262.24a9.69,9.69,0,0,0,2-.55l111-69.59c3-1.9,2.36-3,.28-5-10.54-10.38-20.79-21.05-31.46-31.3-10.89-10.46-20.4-21.83-26.32-35.89C162,107.13,159,93.77,160.68,80.21c1.81-15,6.38-29.47,15.52-42C195.44,11.91,221.12-1.26,254,.09c38.78,1.6,75.11,34.95,80.54,73.43,2.27,16.07,0,31.35-5.12,46.44-11.46,26.4-35.2,42.49-54.06,64ZM263.33,52.75l-1.28-.1c-3.83-4.09-7.72-8.12-11.46-12.29-2.45-2.72-4.59-2.59-7.12-.08q-21.24,21-42.57,42c-1.15,1.14-2.64,2.27-1.67,4.24.83,1.69,2.49,1.6,3.93,1.38,3.87-.6,4.7,1.09,4.61,4.7-.23,10.62,0,21.25-.15,31.88,0,2.56.64,3.49,3.33,3.39,5.47-.19,11-.19,16.44,0,3,.12,4.13-.65,4-3.84-.27-5.47,0-11-.14-16.43-.08-2.66.56-3.88,3.54-3.82,8.47.18,16.94.16,25.41,0,2.6,0,3.48.77,3.4,3.4-.16,5.47.12,11-.11,16.43-.13,3.13.62,4.44,4,4.24a128.12,128.12,0,0,1,15.43,0c3.67.24,4.37-1.16,4.29-4.5-.21-10.13,0-20.26-.15-30.39,0-3.42.23-5.94,4.64-5.16a2.62,2.62,0,0,0,3.2-1.73c.45-1.29-.26-2.25-1.12-3.08-2.5-2.43-4.8-5.15-7.58-7.19-5.77-4.21-7.67-9.49-7.23-16.63.67-10.87.22-10.79-11-11C265.08,48.21,262.9,48.37,263.33,52.75Z"/><path id="Path_3" data-name="Path 3" class="cls-2" d="M367.05,319.64q-54.33-.06-108.64-.07c-3.08,0-5.12-.65-7-3.39Q230,285,208.23,254.05c-1.8-2.56-1.69-3.63,1-5.29Q227.51,237.6,245.51,226a13.89,13.89,0,0,1,7.91-2.27q56.82,0,113.63-.08Z"/><path id="Path_4" data-name="Path 4" class="cls-2" d="M111.63,407.3c0-30.72.12-61.43,0-92.14,0-3.54.9-5.7,4-7.62q26.67-16.47,53.07-33.38c2.85-1.81,4.17-1.13,5.93,1.4Q198,309.34,221.56,343a11.45,11.45,0,0,1,1.94,7c0,19.1,0,38.19.08,57.28Z"/><path id="Path_5" data-name="Path 5" class="cls-2" d="M71.93,120.09q0,71.57-.11,143.14c0,8.4,0,8.4-8.4,8.41l-63.34.11Q0,203.92,0,136.1c0-9.43,6.63-16,16-16.07C34.7,119.94,53.31,120.06,71.93,120.09Z"/><path id="Path_6" data-name="Path 6" class="cls-2" d="M167.15,119.86c5.92,14.06,15.43,25.43,26.32,35.89,10.67,10.25,20.92,20.92,31.46,31.3,2.08,2,2.77,3.16-.28,5.06q-55.54,34.69-111,69.58a9.61,9.61,0,0,1-2,.55V120.09Z"/><path id="Path_7" data-name="Path 7" class="cls-2" d="M.08,311.44c22.22.05,44.44.2,66.66,0,4.23,0,5.2,1.23,5.18,5.29-.14,30.18,0,60.36,0,90.54l-54.86,0c-9.93,0-17-6.63-17-16.6C0,364.3.05,337.87.08,311.44Z"/><path id="Path_8" data-name="Path 8" class="cls-2" d="M263.27,407.24c0-14.3.21-28.6,0-42.9-.06-3.94,1.06-5,5-5,32.92.12,65.84,0,98.76,0,0,10.64.16,21.28.1,31.92,0,9.25-6.85,16.09-16.1,16.1C321.79,407.37,292.53,407.28,263.27,407.24Z"/><path id="Path_9" data-name="Path 9" class="cls-2" d="M367.05,184H275.34c18.86-21.5,42.6-37.6,54.05-64,7,0,13.91,0,20.86,0,10.06.14,16.81,6.77,16.86,16.76C367.18,152.51,367.08,168.23,367.05,184Z"/></g></g></g></svg>