<svg xmlns="http://www.w3.org/2000/svg" xmlns:xlink="http://www.w3.org/1999/xlink" viewBox="0 0 33.02 19.2"><defs><style>.cls-1{fill:none;}.cls-2{clip-path:url(#clip-path);}.cls-3{fill:#ffb600;}.cls-4{fill:#f7981d;}.cls-5{fill:#ff8500;}.cls-6{fill:#ff5050;}.cls-7{fill:#e52836;}.cls-8{fill:#cb2026;}.cls-9{fill:#fff;}.cls-10{fill:#dce5e5;}</style><clipPath id="clip-path" transform="translate(0 -6.4)"><rect class="cls-1" width="33.02" height="32"/></clipPath></defs><g id="Layer_2" data-name="Layer 2"><g id="Layer_1-2" data-name="Layer 1"><g class="cls-2"><path class="cls-3" d="M33,16a9.75,9.75,0,0,1-9.91,9.6,9.78,9.78,0,0,1-9.9-9.6,9.74,9.74,0,0,1,9.85-9.6A9.76,9.76,0,0,1,33,16Z" transform="translate(0 -6.4)"/><path class="cls-4" d="M23.11,6.4A9.79,9.79,0,0,1,33,16a9.75,9.75,0,0,1-9.91,9.6,9.78,9.78,0,0,1-9.9-9.6" transform="translate(0 -6.4)"/><path class="cls-5" d="M23.11,6.4A9.79,9.79,0,0,1,33,16a9.75,9.75,0,0,1-9.91,9.6" transform="translate(0 -6.4)"/><path class="cls-6" d="M9.8,6.4A9.76,9.76,0,0,0,0,16a9.75,9.75,0,0,0,9.91,9.6,10.22,10.22,0,0,0,6.65-2.49,9.54,9.54,0,0,0,1-1h-2c-.26-.31-.52-.67-.73-1h3.51a6.29,6.29,0,0,0,.58-1H14.2a7.11,7.11,0,0,1-.42-1h5.45a9.67,9.67,0,0,0,.53-3.05,13.29,13.29,0,0,0-.21-2H13.47a7.63,7.63,0,0,1,.26-1h5.45a5.36,5.36,0,0,0-.42-1H14.15a10.56,10.56,0,0,1,.58-1h3.51a4.69,4.69,0,0,0-.79-1H15.51a9.16,9.16,0,0,1,1-1A9.87,9.87,0,0,0,9.85,6.5C9.85,6.4,9.85,6.4,9.8,6.4Z" transform="translate(0 -6.4)"/><path class="cls-7" d="M0,16a9.75,9.75,0,0,0,9.91,9.6,10.22,10.22,0,0,0,6.65-2.49,9.54,9.54,0,0,0,1-1h-2c-.26-.31-.52-.67-.73-1h3.51a6.29,6.29,0,0,0,.58-1H14.2a7.11,7.11,0,0,1-.42-1h5.45a9.67,9.67,0,0,0,.53-3.05,13.29,13.29,0,0,0-.21-2H13.47a7.63,7.63,0,0,1,.26-1h5.45a5.36,5.36,0,0,0-.42-1H14.15a10.56,10.56,0,0,1,.58-1h3.51a4.69,4.69,0,0,0-.79-1H15.51a9.16,9.16,0,0,1,1-1A9.87,9.87,0,0,0,9.85,6.5h0" transform="translate(0 -6.4)"/><path class="cls-8" d="M9.91,25.6a10.22,10.22,0,0,0,6.65-2.49,9.54,9.54,0,0,0,1-1h-2c-.26-.31-.52-.67-.73-1h3.51a6.29,6.29,0,0,0,.58-1H14.2a7.11,7.11,0,0,1-.42-1h5.45a9.67,9.67,0,0,0,.53-3.05,13.29,13.29,0,0,0-.21-2H13.47a7.63,7.63,0,0,1,.26-1h5.45a5.36,5.36,0,0,0-.42-1H14.15a10.56,10.56,0,0,1,.58-1h3.51a4.69,4.69,0,0,0-.79-1H15.51a9.16,9.16,0,0,1,1-1A9.87,9.87,0,0,0,9.85,6.5h0" transform="translate(0 -6.4)"/><path class="cls-9" d="M13.42,18.44l.15-.87a1.71,1.71,0,0,1-.26.06c-.36,0-.42-.21-.36-.31l.31-1.78h.58l.15-1h-.52l.1-.61h-1s-.63,3.35-.63,3.76a.77.77,0,0,0,.84.86A1.71,1.71,0,0,0,13.42,18.44Z" transform="translate(0 -6.4)"/><path class="cls-9" d="M13.78,16.81a1.65,1.65,0,0,0,1.84,1.78,2.87,2.87,0,0,0,1.1-.15l.21-1a3.19,3.19,0,0,1-1.1.26c-1.15,0-.95-.82-.95-.82H17a6.32,6.32,0,0,0,.16-.91,1.4,1.4,0,0,0-1.52-1.47C14.57,14.43,13.78,15.54,13.78,16.81Zm1.84-1.47c.57,0,.47.66.47.71H14.94C14.94,16,15,15.34,15.62,15.34Z" transform="translate(0 -6.4)"/><path class="cls-9" d="M22.27,18.44l.21-1.12a2.63,2.63,0,0,1-.89.25,1,1,0,0,1-1-1.16c0-1.22.62-1.88,1.36-1.88a1.8,1.8,0,0,1,.94.3L23,13.77a3.72,3.72,0,0,0-1.21-.26c-1.2,0-2.41,1-2.41,3,0,1.27.63,2.13,1.89,2.13A4.81,4.81,0,0,0,22.27,18.44Z" transform="translate(0 -6.4)"/><path class="cls-9" d="M7.65,14.43a3.92,3.92,0,0,0-1.26.2l-.15.86a3.21,3.21,0,0,1,1.15-.2c.37,0,.68.05.68.35S8,15.9,8,15.9H7.55c-.89,0-1.89.35-1.89,1.52a1,1,0,0,0,1,1.12,1.62,1.62,0,0,0,1.1-.46l-.06.41h1l.42-2.79A1.23,1.23,0,0,0,7.65,14.43Zm.21,2.28c0,.15-.1,1-.73,1a.4.4,0,0,1-.42-.41c0-.25.16-.61.94-.61A.89.89,0,0,0,7.86,16.71Z" transform="translate(0 -6.4)"/><path class="cls-9" d="M10.06,18.54c.26,0,1.58.05,1.58-1.32s-1.26-1-1.26-1.52c0-.26.21-.36.57-.36.16,0,.74.05.74.05l.15-.91a3.72,3.72,0,0,0-1-.11c-.79,0-1.57.31-1.57,1.33s1.31,1.06,1.31,1.52c0,.3-.37.35-.63.35a3.67,3.67,0,0,1-1-.15l-.15.92C8.91,18.44,9.17,18.54,10.06,18.54Z" transform="translate(0 -6.4)"/><path class="cls-9" d="M31,13.61,30.77,15a1.47,1.47,0,0,0-1-.5c-.94,0-1.78,1.11-1.78,2.43,0,.82.42,1.68,1.31,1.68a1.39,1.39,0,0,0,1-.41l-.05.36h1.05l.79-4.88ZM30.5,16.3c0,.56-.26,1.27-.84,1.27-.36,0-.57-.3-.57-.81,0-.81.36-1.32.84-1.32S30.5,15.7,30.5,16.3Z" transform="translate(0 -6.4)"/><path class="cls-9" d="M1.94,18.49l.63-3.66.1,3.66h.74l1.36-3.66-.58,3.66h1.1l.84-4.88H4.4l-1.05,3-.05-3H1.78L.94,18.49Z" transform="translate(0 -6.4)"/><path class="cls-9" d="M18.19,18.49c.31-1.68.36-3,1.1-2.79a3.83,3.83,0,0,1,.36-1.17h-.21c-.47,0-.83.61-.83.61l.1-.56h-1l-.68,4h1.16Z" transform="translate(0 -6.4)"/><path class="cls-9" d="M24.69,14.43a3.84,3.84,0,0,0-1.26.2l-.16.86a3.21,3.21,0,0,1,1.15-.2c.37,0,.68.05.68.35s-.05.26-.05.26h-.47c-.89,0-1.89.35-1.89,1.52a1,1,0,0,0,1,1.12,1.59,1.59,0,0,0,1.1-.46l-.05.41h.94l.42-2.79C26.15,14.48,25.05,14.43,24.69,14.43ZM25,16.71c0,.15-.11,1-.74,1a.41.41,0,0,1-.42-.41c0-.25.16-.61.95-.61C24.9,16.71,24.9,16.71,25,16.71Z" transform="translate(0 -6.4)"/><path class="cls-9" d="M27,18.49c.32-1.68.37-3,1.1-2.79a3.75,3.75,0,0,1,.37-1.17h-.21c-.47,0-.84.61-.84.61l.11-.56h-1l-.68,4H27Z" transform="translate(0 -6.4)"/><path class="cls-10" d="M11.79,17.73a.77.77,0,0,0,.84.86,2.11,2.11,0,0,0,.79-.15l.15-.87a1.71,1.71,0,0,1-.26.06c-.36,0-.42-.21-.36-.31l.31-1.78h.58l.15-1h-.52l.1-.61" transform="translate(0 -6.4)"/><path class="cls-10" d="M14.31,16.81c0,1.42.47,1.78,1.31,1.78a2.87,2.87,0,0,0,1.1-.15l.21-1a3.19,3.19,0,0,1-1.1.26c-1.15,0-.95-.82-.95-.82H17a6.32,6.32,0,0,0,.16-.91,1.4,1.4,0,0,0-1.52-1.47C14.57,14.43,14.31,15.54,14.31,16.81Zm1.31-1.47c.58,0,.68.66.68.71H14.94C14.94,16,15,15.34,15.62,15.34Z" transform="translate(0 -6.4)"/><path class="cls-10" d="M22.27,18.44l.21-1.12a2.63,2.63,0,0,1-.89.25,1,1,0,0,1-1-1.16c0-1.22.62-1.88,1.36-1.88a1.8,1.8,0,0,1,.94.3L23,13.77a3.72,3.72,0,0,0-1.21-.26c-1.2,0-1.88,1-1.88,3,0,1.27.1,2.13,1.36,2.13A4.81,4.81,0,0,0,22.27,18.44Z" transform="translate(0 -6.4)"/><path class="cls-10" d="M6.24,15.54a3.21,3.21,0,0,1,1.15-.2c.37,0,.68.05.68.36S8,16,8,16H7.55c-.89,0-1.89.35-1.89,1.52a1,1,0,0,0,1,1.12,1.62,1.62,0,0,0,1.1-.46l-.06.41h1l.42-2.79c0-1.17-1.05-1.22-1.47-1.22Zm2.15,1.17a1.71,1.71,0,0,1-1.26,1,.4.4,0,0,1-.42-.41c0-.25.16-.61.94-.61A4.57,4.57,0,0,0,8.39,16.71Z" transform="translate(0 -6.4)"/><path class="cls-10" d="M8.91,18.44a4.62,4.62,0,0,0,1.21.1c.26,0,1.57.05,1.57-1.32s-1.26-1-1.26-1.52c0-.26.21-.36.58-.36.15,0,.73.05.73.05l.16-.91a3.85,3.85,0,0,0-1-.11c-.78,0-1.05.31-1.05,1.33s.79,1.06.79,1.52c0,.3-.37.35-.63.35" transform="translate(0 -6.4)"/><path class="cls-10" d="M30.77,15a1.47,1.47,0,0,0-1-.5c-.94,0-1.26,1.11-1.26,2.43,0,.82-.1,1.68.79,1.68a1.39,1.39,0,0,0,1-.41l-.05.36h1.05l.79-4.88Zm-.06,1.32c0,.56-.47,1.27-1.05,1.27-.36,0-.57-.3-.57-.81,0-.81.37-1.32.84-1.32A.79.79,0,0,1,30.71,16.3Z" transform="translate(0 -6.4)"/><path class="cls-10" d="M1.94,18.49l.63-3.66.1,3.66h.74l1.36-3.66-.58,3.66h1.1l.84-4.88H4.82l-1.47,3-.05-3H2.73L.94,18.49Z" transform="translate(0 -6.4)"/><path class="cls-10" d="M17.09,18.49h1.1c.31-1.68.36-3,1.1-2.79a3.83,3.83,0,0,1,.36-1.17h-.21c-.47,0-.83.61-.83.61l.1-.56" transform="translate(0 -6.4)"/><path class="cls-10" d="M23.27,15.54a3.21,3.21,0,0,1,1.15-.2c.37,0,.68.05.68.36s-.05.25-.05.25h-.47c-.89,0-1.89.35-1.89,1.52a1,1,0,0,0,1,1.12,1.59,1.59,0,0,0,1.1-.46l-.05.41h.94l.42-2.79c0-1.17-1.05-1.22-1.47-1.22Zm2.15,1.17a1.71,1.71,0,0,1-1.26,1,.41.41,0,0,1-.42-.41c0-.25.16-.61,1-.61A4.79,4.79,0,0,0,25.42,16.71Z" transform="translate(0 -6.4)"/><path class="cls-10" d="M25.89,18.49H27c.32-1.68.37-3,1.1-2.79a3.75,3.75,0,0,1,.37-1.17h-.21c-.47,0-.84.61-.84.61l.11-.56" transform="translate(0 -6.4)"/></g></g></g></svg>