<svg xmlns="http://www.w3.org/2000/svg" viewBox="0 0 32 22.42"><defs><style>.cls-1{fill:none;stroke:#000;stroke-linecap:round;stroke-linejoin:round;stroke-width:2px;}</style></defs><g id="Layer_2" data-name="Layer 2"><g id="Layer_1-2" data-name="Layer 1"><path class="cls-1" d="M1,8.29H31M7.67,15.58H9.33m6.67,0h1.67M6,21.42H26a5.39,5.39,0,0,0,3.54-1.28A4.17,4.17,0,0,0,31,17V5.37a4.13,4.13,0,0,0-1.46-3.09A5.39,5.39,0,0,0,26,1H6A5.39,5.39,0,0,0,2.46,2.28,4.13,4.13,0,0,0,1,5.37V17a4.17,4.17,0,0,0,1.46,3.1A5.39,5.39,0,0,0,6,21.42Z"/></g></g></svg>