<svg xmlns="http://www.w3.org/2000/svg" viewBox="0 0 205.06 205.06"><g id="Layer_2" data-name="Layer 2"><g id="Layer_1-2" data-name="Layer 1"><g id="Mnilcq.tif"><path d="M0,170.88c.35-1.44.66-2.89,1.06-4.32a31.45,31.45,0,0,1,30.35-23h9.48c0-.77.12-1.38.12-2Q41,85.2,41,28.85C41,14.35,50,3.22,64.2.36A3.88,3.88,0,0,0,64.94,0H184.13a11.17,11.17,0,0,0,1.39.43A24.93,24.93,0,0,1,205,21.89c.41,4.14-.77,5.45-4.93,5.45h-36V173.12c0,16.4-11.12,29.29-27.35,31.71a25.74,25.74,0,0,1-3.83.22H32.29c-16.47,0-28.87-10.31-32-26.57a4,4,0,0,0-.33-.77Zm47.85-27.34h4.21q40.36,0,80.73,0a5.14,5.14,0,0,1,2.6.63,3.19,3.19,0,0,1,1.16,4c-.57,1.65-1.93,2.2-3.71,2.23-10.07.19-18.32,5.81-21.78,14.72-3.59,9.24-1.44,19.84,5.38,26.48a24.49,24.49,0,0,0,26.6,4.64c9.62-4.27,14.14-12,14.15-22.38q.08-74.66,0-149.3A24.13,24.13,0,0,1,163,8.69c.43-.52.87-1,1.57-1.85H69.38c-13.18,0-21.52,8.32-21.52,21.44q0,55.74,0,111.49Zm66.17,7c-.62-.09-.83-.15-1-.15q-41.55,0-83.08,0a22.61,22.61,0,0,0-12.31,3.68c-8.9,5.68-12.83,16.71-9.78,27.36A23.16,23.16,0,0,0,30.31,198.2c27.33.06,54.67,0,82,0h1.91c-7.44-6.58-11.62-14.25-11.67-23.77S106.69,157.07,114,150.53ZM164.56,20.37h33.17c-1-7.92-8.17-13.63-16.95-13.52C172.39,7,165.27,12.85,164.56,20.37Z"/><path d="M100.81,34.17c9.45,0,18.91,0,28.37,0,1.82,0,3.23.55,3.9,2.33.89,2.33-.91,4.51-3.76,4.52q-12.58,0-25.18,0c-10.45,0-20.91,0-31.36-.06a5,5,0,0,1-3.42-1.16,4.45,4.45,0,0,1-.65-3.47c.37-1.63,1.85-2.16,3.5-2.16,7.69,0,15.37,0,23.05,0Z"/><path d="M100.81,61.52c9.46,0,18.92,0,28.38,0,1.82,0,3.23.55,3.89,2.33.88,2.34-.9,4.5-3.77,4.51-9,0-18.06,0-27.1,0-9.81,0-19.63,0-29.44-.06a5,5,0,0,1-3.42-1.16,4.45,4.45,0,0,1-.64-3.47c.37-1.63,1.86-2.16,3.51-2.16,7,0,14.08,0,21.12,0h7.47Z"/><path d="M101.05,88.86q14,0,28,0c1.59,0,3,.26,3.83,1.76,1.39,2.48-.38,5.07-3.54,5.07-10.25,0-20.49,0-30.73,0-8.82,0-17.64,0-26.45,0-2.31,0-3.79-1.46-3.75-3.48S69.83,89,72,88.87c.5,0,1,0,1.5,0h27.52Z"/><path d="M100.72,123H73.19c-.42,0-.85,0-1.28,0a3.45,3.45,0,0,1-3.56-3.46A3.4,3.4,0,0,1,72,116.21c5.26,0,10.53,0,15.79,0h41a6.42,6.42,0,0,1,2.11.17,3.24,3.24,0,0,1,2.38,3.6c-.15,1.83-1.6,3-3.72,3-8.11,0-16.22,0-24.33,0Z"/></g></g></g></svg>