<svg xmlns="http://www.w3.org/2000/svg" viewBox="0 0 24.74 25.71"><defs><style>.cls-1{fill:#fff;}</style></defs><g id="Layer_2" data-name="Layer 2"><g id="Layer_1-2" data-name="Layer 1"><path id="Path_3" data-name="Path 3" class="cls-1" d="M8.86,7.85l1.22-.08.72,0c.21,0,.29,0,.33-.25A25.45,25.45,0,0,1,12,4.9a7.81,7.81,0,0,0,.41-1.58A3,3,0,0,0,11.86,1,.63.63,0,0,1,12,.14a.69.69,0,0,1,1,.18,4.16,4.16,0,0,1,.72,3.57,26.09,26.09,0,0,1-1,3l-.18.6c0,.13,0,.19.14.19L15,7.79a.2.2,0,0,0,.23-.13c.27-.6.57-1.2.85-1.81a2.32,2.32,0,0,0,.23-1.07,1.68,1.68,0,0,0-.48-1.06.65.65,0,0,1-.12-.9.6.6,0,0,1,.08-.08.67.67,0,0,1,1,0l0,.06a2.75,2.75,0,0,1,.68,3,12.9,12.9,0,0,1-.82,1.77c-.1.21-.08.27.17.3A20.26,20.26,0,0,1,22.4,9.21a5.43,5.43,0,0,1,1.57.93,2,2,0,0,1,.77,1.71,11.36,11.36,0,0,1-5.67,9.43,7.19,7.19,0,0,1-.67.37.28.28,0,0,0-.18.29c0,.32,0,.65,0,1a1.72,1.72,0,0,1-.79,1.56,5.61,5.61,0,0,1-2.3.94,13,13,0,0,1-6.43-.24,4.26,4.26,0,0,1-1.59-.83A1.68,1.68,0,0,1,6.5,23c0-.32,0-.63,0-.95a.37.37,0,0,0-.24-.41A11.77,11.77,0,0,1,1,16.15a10.79,10.79,0,0,1-1-4.44,1.86,1.86,0,0,1,.57-1.4A5.34,5.34,0,0,1,2.46,9.15a16.61,16.61,0,0,1,4.22-1,.9.9,0,0,0,.87-.63c.2-.58.56-1.09.78-1.67A1.86,1.86,0,0,0,8,3.62a.61.61,0,0,1,0-.86l0,0a.64.64,0,0,1,.9,0v0a2.73,2.73,0,0,1,.8,2.95A11.72,11.72,0,0,1,9,7.5.89.89,0,0,0,8.86,7.85ZM13,14.13a34.06,34.06,0,0,0,4.16-.28,20.88,20.88,0,0,0,4.48-1,4.75,4.75,0,0,0,1.48-.77.58.58,0,0,0,.24-.79.54.54,0,0,0-.22-.23A3.52,3.52,0,0,0,22,10.42,20.83,20.83,0,0,0,16.38,9.2c-.17,0-.2,0-.18.18a1.73,1.73,0,0,0,.5,1,.63.63,0,0,1,.08.89l-.06.07a.64.64,0,0,1-.92,0,.12.12,0,0,1-.05,0,2.75,2.75,0,0,1-.9-2.07c0-.13,0-.19-.17-.2L12.49,9c-.2,0-.19.09-.17.23a3.12,3.12,0,0,0,.54,1.27.63.63,0,0,1,0,.9l-.06,0a.65.65,0,0,1-.91-.16s0,0,0,0a4,4,0,0,1-.82-2c0-.14-.06-.18-.2-.17l-2.15.13c-.21,0-.25.11-.23.28a1.8,1.8,0,0,0,.5,1,.63.63,0,0,1,.06.9l0,0a.66.66,0,0,1-.93,0l0,0a2.89,2.89,0,0,1-.9-1.75c0-.19-.08-.23-.27-.18-.44.1-.89.15-1.33.24a13.64,13.64,0,0,0-3.14,1,3.19,3.19,0,0,0-.76.49.56.56,0,0,0-.13.78.44.44,0,0,0,.13.14,3,3,0,0,0,.82.53,12.63,12.63,0,0,0,2.32.77,34.55,34.55,0,0,0,8.3.82Zm-11.46-.6c0,.1,0,.16,0,.23a2.44,2.44,0,0,0,.95,1.61A10.17,10.17,0,0,0,6,17.17a20.62,20.62,0,0,0,5.68.8,23.19,23.19,0,0,0,6.74-.7,9.38,9.38,0,0,0,4.3-2.37c.37-.38.36-.89.53-1.4a9.24,9.24,0,0,1-1.48.65,27.13,27.13,0,0,1-7.2,1.2,38.93,38.93,0,0,1-7.16-.25,17.1,17.1,0,0,1-5.87-1.57Zm1.87,4a11.23,11.23,0,0,0,9.86,4.26,10.88,10.88,0,0,0,4.5-1.26,10.78,10.78,0,0,0,3.59-3,.39.39,0,0,0-.26.07,12.84,12.84,0,0,1-2.23.86,22.18,22.18,0,0,1-5.49.78,28.48,28.48,0,0,1-4.71-.21,16.63,16.63,0,0,1-5.26-1.51Zm4.41,4.78a3.49,3.49,0,0,1,0,.56.62.62,0,0,0,.37.67,4.64,4.64,0,0,0,1,.43,11.61,11.61,0,0,0,3.93.41,8.9,8.9,0,0,0,3.06-.64c.52-.22.85-.51.75-1.13,0-.23,0-.29-.29-.2a13.05,13.05,0,0,1-6.23.56A14.47,14.47,0,0,1,7.82,22.32Z"/></g></g></svg>