<svg xmlns="http://www.w3.org/2000/svg" xmlns:xlink="http://www.w3.org/1999/xlink" viewBox="0 0 577.62 175.83"><defs><style>.cls-1{fill:#4a4a49;}.cls-2,.cls-3,.cls-4,.cls-5{fill-rule:evenodd;}.cls-2{fill:url(#linear-gradient);}.cls-3{fill:url(#linear-gradient-2);}.cls-4{fill:url(#linear-gradient-3);}.cls-5{fill:url(#linear-gradient-4);}</style><linearGradient id="linear-gradient" x1="-389.35" y1="470.39" x2="-389.56" y2="470.9" gradientTransform="matrix(125.82, 0, 0, -155.25, 49104.76, 73156.89)" gradientUnits="userSpaceOnUse"><stop offset="0" stop-color="#ef2131"/><stop offset="1" stop-color="#fecf2c"/></linearGradient><linearGradient id="linear-gradient-2" x1="-388.73" y1="470.52" x2="-389.23" y2="469.58" gradientTransform="matrix(114.75, 0, 0, -125.78, 44753.2, 59249.34)" gradientUnits="userSpaceOnUse"><stop offset="0" stop-color="#fbc52c"/><stop offset="0.26" stop-color="#f87130"/><stop offset="0.56" stop-color="#ef52e2"/><stop offset="1" stop-color="#661eec"/></linearGradient><linearGradient id="linear-gradient-3" x1="-389.4" y1="470.8" x2="-389.2" y2="470.3" gradientTransform="matrix(125.82, 0, 0, -155.25, 49054.7, 73136.34)" gradientUnits="userSpaceOnUse"><stop offset="0" stop-color="#78f6d8"/><stop offset="0.27" stop-color="#77d1f6"/><stop offset="0.55" stop-color="#70a4f3"/><stop offset="1" stop-color="#661eec"/></linearGradient><linearGradient id="linear-gradient-4" x1="-389.41" y1="469.79" x2="-388.92" y2="470.73" gradientTransform="matrix(114.75, 0, 0, -125.78, 44714.22, 59199.24)" gradientUnits="userSpaceOnUse"><stop offset="0" stop-color="#536eed"/><stop offset="0.25" stop-color="#54c3ec"/><stop offset="0.56" stop-color="#64d769"/><stop offset="1" stop-color="#fecf2c"/></linearGradient></defs><g id="Layer_2" data-name="Layer 2"><g id="Layer_1-2" data-name="Layer 1"><g id="_02-Secondary-_Horizontal_Colour_Light-background_Swish_Logo_Secondary_Light-BG" data-name="02-Secondary-(Horizontal)/Colour/Light-background/Swish_Logo_Secondary_Light-BG"><g id="Wordmark_Swish" data-name="Wordmark/Swish"><path id="swish_" data-name="swish®" class="cls-1" d="M549.06,48.9a14.54,14.54,0,0,1,1.12-5.71,15,15,0,0,1,3-4.64,14.22,14.22,0,0,1,4.5-3.13,13.56,13.56,0,0,1,5.54-1.14,13.94,13.94,0,0,1,5.62,1.14,14.26,14.26,0,0,1,4.56,3.13,14.87,14.87,0,0,1,3.06,4.64,15.12,15.12,0,0,1,0,11.42,14.8,14.8,0,0,1-3.06,4.65,14.23,14.23,0,0,1-4.56,3.12,13.94,13.94,0,0,1-5.62,1.14,13.56,13.56,0,0,1-5.54-1.14,14.19,14.19,0,0,1-4.5-3.12,14.92,14.92,0,0,1-3-4.65A14.5,14.5,0,0,1,549.06,48.9Zm2.92,0a12.62,12.62,0,0,0,.86,4.69,11.74,11.74,0,0,0,2.38,3.77,11.21,11.21,0,0,0,3.58,2.52,10.85,10.85,0,0,0,4.46.92,11.1,11.1,0,0,0,4.52-.92,11.39,11.39,0,0,0,3.62-2.52,11.84,11.84,0,0,0,2.42-3.77,12.91,12.91,0,0,0,0-9.37,11.73,11.73,0,0,0-2.42-3.77,11.23,11.23,0,0,0-3.62-2.52,10.94,10.94,0,0,0-4.52-.92,10.69,10.69,0,0,0-4.46.92,11.06,11.06,0,0,0-3.58,2.52,11.63,11.63,0,0,0-2.38,3.77A12.6,12.6,0,0,0,552,48.9Zm6.4-6.29a1.17,1.17,0,0,1,1.32-1.32h4.52a4.76,4.76,0,0,1,3.44,1.24,4.49,4.49,0,0,1,1.28,3.37,4.4,4.4,0,0,1-.26,1.56,4.07,4.07,0,0,1-.66,1.18,3.75,3.75,0,0,1-.88.82,2.94,2.94,0,0,1-1,.44V50a1.12,1.12,0,0,1,.12.17.84.84,0,0,1,.16.26,2.4,2.4,0,0,0,.24.42l2.08,4a1.25,1.25,0,0,1,.16,1.1.87.87,0,0,1-.88.42h-.48a1.57,1.57,0,0,1-1.56-1l-2.32-4.88h-2.48v4.56c0,.86-.41,1.28-1.24,1.28h-.36c-.83,0-1.24-.42-1.24-1.28Zm5.24,5.85a2.34,2.34,0,0,0,1.8-.68,2.61,2.61,0,0,0,.64-1.88,2.4,2.4,0,0,0-.64-1.8,2.37,2.37,0,0,0-1.76-.64h-2.44v5ZM447,58a33.68,33.68,0,0,1,11.5,1.73A55.39,55.39,0,0,1,465.9,63a4.64,4.64,0,0,1,2.66,3.2,6.74,6.74,0,0,1-.66,4.26l-1.33,2.4a4.67,4.67,0,0,1-3.06,2.79,7.37,7.37,0,0,1-4.39-.66c-1.51-.71-3.33-1.45-5.45-2.2a22.15,22.15,0,0,0-7.45-1.13,11.42,11.42,0,0,0-6.79,1.73A5.73,5.73,0,0,0,437,78.29a5.32,5.32,0,0,0,2.46,4.53,25.81,25.81,0,0,0,6.25,3.06l8.12,2.86A40.26,40.26,0,0,1,462,92.67a20.53,20.53,0,0,1,6.25,6.13,16.84,16.84,0,0,1,2.46,9.46,19.32,19.32,0,0,1-1.79,8.32,19,19,0,0,1-5.19,6.59,25.3,25.3,0,0,1-8.18,4.4,33.61,33.61,0,0,1-10.64,1.6,35.6,35.6,0,0,1-13.9-2.4,49.67,49.67,0,0,1-8.71-4.53,4.62,4.62,0,0,1-2.53-3.33,6.28,6.28,0,0,1,1.2-4.26l1.59-2.4a5,5,0,0,1,3.26-2.4,7.3,7.3,0,0,1,4.32,1.07q2.4,1.33,6.19,3a22.22,22.22,0,0,0,9,1.66,11.43,11.43,0,0,0,6.91-1.86,6,6,0,0,0,2.53-5.07,5.14,5.14,0,0,0-2.46-4.46,29.12,29.12,0,0,0-6.25-3.06l-8.12-3a43.33,43.33,0,0,1-8.11-4A20.53,20.53,0,0,1,423.54,88a17.11,17.11,0,0,1-2.46-9.59,18.11,18.11,0,0,1,7.65-15.18A26.24,26.24,0,0,1,437,59.37,36.81,36.81,0,0,1,447,58ZM249.31,58a33.68,33.68,0,0,1,11.5,1.73,55.39,55.39,0,0,1,7.38,3.2,4.64,4.64,0,0,1,2.66,3.2,6.74,6.74,0,0,1-.66,4.26l-1.33,2.4a4.67,4.67,0,0,1-3.06,2.79,7.38,7.38,0,0,1-4.39-.66,58.75,58.75,0,0,0-5.45-2.2,22.15,22.15,0,0,0-7.45-1.13c-2.93,0-5.19.57-6.78,1.73a5.71,5.71,0,0,0-2.4,4.93,5.32,5.32,0,0,0,2.46,4.53A26,26,0,0,0,248,85.88l8.12,2.86a40.26,40.26,0,0,1,8.11,3.93,20.53,20.53,0,0,1,6.25,6.13,16.84,16.84,0,0,1,2.46,9.46,19.32,19.32,0,0,1-1.79,8.32,19,19,0,0,1-5.19,6.59,25.3,25.3,0,0,1-8.18,4.4,33.61,33.61,0,0,1-10.64,1.6,35.6,35.6,0,0,1-13.9-2.4,49.67,49.67,0,0,1-8.71-4.53,4.62,4.62,0,0,1-2.53-3.33,6.28,6.28,0,0,1,1.2-4.26l1.59-2.4a5,5,0,0,1,3.26-2.4,7.34,7.34,0,0,1,4.33,1.07q2.39,1.33,6.18,3a22.22,22.22,0,0,0,9,1.66,11.43,11.43,0,0,0,6.91-1.86,6,6,0,0,0,2.53-5.07,5.14,5.14,0,0,0-2.46-4.46,29.12,29.12,0,0,0-6.25-3.06l-8.11-3a43.12,43.12,0,0,1-8.12-4A20.65,20.65,0,0,1,225.83,88a17.11,17.11,0,0,1-2.46-9.59A18.11,18.11,0,0,1,231,63.24a26.19,26.19,0,0,1,8.25-3.87A36.68,36.68,0,0,1,249.31,58ZM491.83,33q5.6,0,5.59,5.59V66c0,.89,0,1.67-.07,2.33a16.74,16.74,0,0,1-.2,1.8,11.36,11.36,0,0,0-.13,1.6h.27a21.92,21.92,0,0,1,3.39-4.86,26.92,26.92,0,0,1,5.18-4.46,26.41,26.41,0,0,1,6.79-3.2,27,27,0,0,1,8.18-1.2q11.31,0,17.49,6.13t6.18,19.71V122q0,5.59-5.58,5.6H533.2q-5.6,0-5.59-5.6V87.34q0-6.25-2.13-10T517,73.49a18.64,18.64,0,0,0-8.05,1.73A18.19,18.19,0,0,0,502.74,80a21.56,21.56,0,0,0-3.92,7.13,27.39,27.39,0,0,0-1.4,8.92v26q0,5.59-5.59,5.6h-5.72q-5.58,0-5.58-5.6V38.59q0-5.6,5.58-5.59ZM403.46,59.64c3.64,0,5.45,1.86,5.45,5.59V122c0,3.73-1.81,5.6-5.45,5.6h-5.85q-5.46,0-5.46-5.6V65.23q0-5.6,5.46-5.59Zm-112.86,0q5.06,0,6,4.93l10.91,39.69c.17,1,.33,1.86.46,2.66s.29,1.56.47,2.27.31,1.55.4,2.26h.26c.09-.71.22-1.46.4-2.26s.33-1.47.47-2.27a25.5,25.5,0,0,1,.6-2.66L322,64.57c.63-3.2,2.66-4.8,6.12-4.8h5.06a5.74,5.74,0,0,1,6.12,4.8l11.3,39.69a25.5,25.5,0,0,1,.6,2.66c.13.8.29,1.56.47,2.27s.31,1.55.39,2.26h.27c.09-.71.22-1.46.4-2.26s.33-1.47.46-2.27.34-1.68.6-2.66l10.78-39.69c.8-3.29,2.83-4.93,6.12-4.93h6.11c2,0,3.46.58,4.26,1.73a5.18,5.18,0,0,1,.4,4.53l-17.43,57a5.9,5.9,0,0,1-6.25,4.66h-8.91q-5.06,0-6.25-4.8l-10.24-34c-.27-.89-.49-1.78-.67-2.67s-.35-1.68-.53-2.39-.31-1.56-.4-2.27h-.26c-.18.71-.36,1.47-.53,2.27s-.36,1.51-.54,2.39-.4,1.78-.66,2.67l-10.24,34a5.74,5.74,0,0,1-6.12,4.8h-9.18a5.83,5.83,0,0,1-6.12-4.66l-17.55-57a5,5,0,0,1,.46-4.53,4.85,4.85,0,0,1,4.19-1.73Z"/></g><g id="Symbol_Colour" data-name="Symbol/Colour"><g id="Right-Swirl"><path id="Base-Shape" class="cls-2" d="M50,167.27A87.93,87.93,0,0,0,144.42,20.58L119.7,50a68.67,68.67,0,0,1,8.46,96.75C108.71,170,76.7,177.7,50,167.27"/><path id="Light-Cast" class="cls-3" d="M50,167.27a88.08,88.08,0,0,0,113.77-34.92,77,77,0,0,0-44.08-82.3,68.66,68.66,0,0,1,8.46,96.74C108.71,170,76.7,177.7,50,167.27"/></g><g id="Left-Swirl"><path id="Base-shape-2" data-name="Base-shape" class="cls-4" d="M125.82,8.56A87.93,87.93,0,0,0,31.4,155.25l24.73-29.47A68.66,68.66,0,0,1,47.67,29C67.11,5.87,99.13-1.87,125.82,8.56"/><path id="Shadow" class="cls-5" d="M125.82,8.56A88,88,0,0,0,20.57,31.41a89.11,89.11,0,0,0-8.52,12.06,77,77,0,0,0,44.08,82.31A68.67,68.67,0,0,1,47.67,29C67.11,5.87,99.13-1.87,125.82,8.56"/></g></g></g></g></g></svg>