<svg xmlns="http://www.w3.org/2000/svg" viewBox="0 0 20 20"><defs><style>.cls-1{fill:none;stroke:#000;stroke-linecap:round;stroke-linejoin:round;stroke-width:2px;}</style></defs><g id="Layer_2" data-name="Layer 2"><g id="Layer_1-2" data-name="Layer 1"><path class="cls-1" d="M1.59,1.59A2,2,0,0,0,1,3V4A15,15,0,0,0,16,19h1a2,2,0,0,0,2-2V13.72a1,1,0,0,0-.68-1l-4.5-1.5a1.05,1.05,0,0,0-.7,0,1,1,0,0,0-.51.48L11.48,14A11,11,0,0,1,6,8.52L8.22,7.39a1,1,0,0,0,.48-.51,1.05,1.05,0,0,0,0-.7l-1.5-4.5a1,1,0,0,0-1-.68H3A2,2,0,0,0,1.59,1.59Z"/></g></g></svg>