<svg xmlns="http://www.w3.org/2000/svg" viewBox="0 0 24.5 23.75"><defs><style>.cls-1{fill:none;stroke:black;stroke-linecap:round;stroke-linejoin:round;stroke-width:2px;}</style></defs><g id="Layer_2" data-name="Layer 2"><g id="Layer_1-2" data-name="Layer 1"><path id="Path_4" data-name="Path 4" class="cls-1" d="M12.25,7v4.84L16,15.5m7.5-3.62A10.47,10.47,0,0,1,22.64,16a11,11,0,0,1-2.44,3.53,11.33,11.33,0,0,1-3.64,2.35,11.55,11.55,0,0,1-8.61,0A11.26,11.26,0,0,1,4.3,19.57,11,11,0,0,1,1.86,16,10.47,10.47,0,0,1,1,11.88,10.67,10.67,0,0,1,4.3,4.19a11.52,11.52,0,0,1,15.91,0A10.71,10.71,0,0,1,23.5,11.88Z"/></g></g></svg>